<?xml version="1.0"?>
<svg xmlns:rdf="http://www.w3.org/1999/02/22-rdf-syntax-ns#" xmlns="http://www.w3.org/2000/svg" xmlns:cc="http://creativecommons.org/ns#" xmlns:xlink="http://www.w3.org/1999/xlink" xmlns:dc="http://purl.org/dc/elements/1.1/" xmlns:svg="http://www.w3.org/2000/svg" id="svg2" viewBox="0 0 468.08 800.47" version="1.1">
  <defs id="defs4">
    <linearGradient id="linearGradient3868">
      <stop id="stop3870" stop-color="#c1c1c1" offset="0"/>
      <stop id="stop3872" stop-color="#858585" offset="1"/>
    </linearGradient>
    <linearGradient id="linearGradient5065">
      <stop id="stop5067" stop-color="#ececec" offset="0"/>
      <stop id="stop5069" stop-color="#a0a0a0" offset="1"/>
    </linearGradient>
    <filter id="filter5430" height="1.5308" width="1.0417" y="-.26541" x="-.020874" color-interpolation-filters="sRGB">
      <feGaussianBlur id="feGaussianBlur5432" stdDeviation="1.4410875"/>
    </filter>
    <filter id="filter5434" height="1.5308" width="1.0417" y="-.26541" x="-.020874" color-interpolation-filters="sRGB">
      <feGaussianBlur id="feGaussianBlur5436" stdDeviation="1.4410875"/>
    </filter>
    <radialGradient id="radialGradient3048" xlink:href="#linearGradient5065" gradientUnits="userSpaceOnUse" cy="93.359" cx="372.05" gradientTransform="matrix(1 0 0 .094041 0 84.58)" r="85.235"/>
    <radialGradient id="radialGradient3051" xlink:href="#linearGradient5065" gradientUnits="userSpaceOnUse" cy="823.98" cx="384.57" gradientTransform="matrix(1.0216 -.018403 .0070302 .39045 -14.097 507.23)" r="90.932"/>
    <linearGradient id="linearGradient3075" y2="191.8" gradientUnits="userSpaceOnUse" x2="249.34" y1="803.02" x1="574.13">
      <stop id="stop5026" stop-color="#202020" offset="0"/>
      <stop id="stop5028" stop-color="#2a2a2a" offset="1"/>
    </linearGradient>
    <linearGradient id="linearGradient3078" y2="878.46" gradientUnits="userSpaceOnUse" x2="265.97" y1="176.46" x1="612.49">
      <stop id="stop5440" stop-color="#171717" offset="0"/>
      <stop id="stop5442" stop-color="#171717" offset="1"/>
    </linearGradient>
    <radialGradient id="radialGradient3082" xlink:href="#linearGradient3868" gradientUnits="userSpaceOnUse" cy="93.359" cx="372.05" gradientTransform="matrix(0 -.37959 .035698 0 601.44 376.17)" r="85.235"/>
    <radialGradient id="radialGradient3086" xlink:href="#linearGradient3868" gradientUnits="userSpaceOnUse" cy="93.359" cx="372.05" gradientTransform="matrix(0 -.37959 .035698 0 601.44 439.01)" r="85.235"/>
  </defs>
  <g id="layer1" transform="translate(-142.76 -70.934)">
    <g id="g3051">
      <rect id="rect5079" rx="100.24" ry="100.03" height="800.08" width="466.24" y="71.327" x="144.6" fill="url(#linearGradient3078)"/>
      <rect id="rect2987" rx="98.59" ry="98.59" height="788.57" width="458.57" y="70.934" x="142.76" fill="url(#linearGradient3075)"/>
      <rect id="rect2993" rx="85.621" ry="85.621" height="708.04" width="434.29" y="86.031" x="154.9"/>
      <rect id="rect2991" rx="0" ry="0" height="532.06" width="401.96" y="147.55" x="171.07" fill="#1a1a1a"/>
      <g id="g4952" opacity=".5468" transform="matrix(.75535 0 0 .75535 376.13 116.77)" fill="#4d4d4d">
        <g id="text4937" transform="matrix(-1.5566 0 0 .79463 33.22 -48.26)">
          <path id="path4942" fill="#4d4d4d" d="m131.27 1059.2c-0.00001-5.1029 1.0429-8.9395 3.1288-11.51 2.0859-2.6073 5.0471-3.911 8.8836-3.911 2.3093 0 2.7464 0.1478 7.1516 0.4434v4.5815c-4.4184-0.5936-4.6001-0.8904-6.8722-0.8904-2.4211 0-6.1731 0.9499-7.514 2.8495-1.3037 1.8996-1.9555 4.7118-1.9555 8.4366-0.00001 3.8738 0.68907 6.7604 2.0672 8.6601 1.4154 1.8996 5.2233 2.8494 7.6816 2.8494 2.2348 0 4.5256-0.6891 6.8722-2.0672v4.5814c-2.4584 0.9685-4.8422 1.4527-7.1516 1.4527-3.911 0-6.9467-1.285-9.1071-3.8551-2.1231-2.5701-3.1847-6.4439-3.1847-11.621"/>
        </g>
        <path id="path4944" d="m-193.7 776.81v12.601l-5.4565-3.1503-5.4565-3.1503 5.4565-3.1503z"/>
      </g>
      <g id="g4969" opacity=".5468" transform="translate(485.06 -74.286)" fill="#4d4d4d">
        <rect id="rect4961" y="777.85" width="33.082" height="3.1567" x="-129.55"/>
        <rect id="rect4963" y="784.04" width="27.826" height="3.1567" x="-124.3"/>
        <rect id="rect4965" y="790.23" width="27.826" height="3.1567" x="-124.3"/>
        <rect id="rect4967" y="796.41" width="27.826" height="3.1567" x="-124.47"/>
      </g>
      <g id="g5004" opacity=".5468" transform="matrix(.74614 0 0 .74614 676.47 177.59)">
        <path id="path4975" d="m-220.31 704.94c-7.3927 0-13.438 6.0448-13.438 13.438 0 7.3927 6.0448 13.406 13.438 13.406 0.96896 0 1.9004-0.11632 2.8125-0.3125a2.0574 2.1167 0 0 1 -0.90625 -3.9062c-0.61564 0.12439-1.2524 0.21875-1.9062 0.21875-5.231 0-9.4375-4.1753-9.4375-9.4062 0-5.231 4.2066-9.4375 9.4375-9.4375 5.231 0 9.4375 4.2066 9.4375 9.4375 0 2.4483-0.92074 4.6466-2.4375 6.3125a2.0502 2.1093 0 0 1 0.40625 -0.0937 2.0502 2.1093 0 0 1 1.625 3.625c-0.13569 0.13483-0.2734 0.25351-0.40625 0.375 2.9306-2.4611 4.8125-6.1079 4.8125-10.219 0-7.3927-6.0448-13.438-13.438-13.438z" style="block-progression:tb;color:#000000;text-transform:none;text-indent:0" fill="#4d4d4d"/>
        <path id="path4983" d="m-223.96 729.19c1.5797 0.40965 4.0607 0.81003 6.1637 0.28218" stroke="#4d4d4d" stroke-linecap="round" stroke-width="4" fill="#383838"/>
        <path id="path4977" d="m-212.01 726.21 7.1429 7.8373" stroke="#4d4d4d" stroke-linecap="round" stroke-width="4" fill="#4d4d4d"/>
      </g>
      <g id="g5032" transform="translate(16.453 -5.1606)">
        <rect id="rect5011" rx="3.2651" ry="5.718" height="11.436" width="25.528" y="821.28" x="249.34" fill="#4d4d4d"/>
        <rect id="rect5013" rx="3.2651" ry="5.718" height="11.436" width="25.528" y="820.57" x="249.73"/>
        <rect id="rect5009" rx="3.2651" ry="5.718" height="11.436" width="25.528" y="820.96" x="249.52" fill="#101010"/>
      </g>
      <rect id="rect5073" rx="11.169" ry="11.169" height="28.751" width="181.86" y="808.07" x="295.72" fill="#666"/>
      <rect id="rect5077" rx="11.169" ry="11.169" height="28.751" width="181.86" y="806.23" x="296.92"/>
      <rect id="rect5017" rx="11.169" ry="11.169" height="28.751" width="181.86" y="807.11" x="296.44" fill="url(#radialGradient3051)"/>
      <path id="rect5019" d="m286.92 85.344c-0.057 0.53273-0.10526 1.0868-0.10526 1.6562v6.8438c0 4.1793 7.376 7.5312 9.3856 7.5312h152.18c2.0096 0 8.9061-3.352 8.9061-7.5312v-6.8438c0-0.56942-0.0483-1.1235-0.10526-1.6562z" fill="url(#radialGradient3048)"/>
      <path id="path5083" fill="#666" d="m419.88 86.156c-0.65893 0-1.2188 0.55982-1.2188 1.2188 0 0.65893 0.55982 1.1875 1.2188 1.1875 0.65893 0 1.1875-0.52857 1.1875-1.1875s-0.52857-1.2188-1.1875-1.2188zm4.2812 0c-0.65893 0-1.1875 0.55982-1.1875 1.2188 0 0.65893 0.52857 1.1875 1.1875 1.1875s1.1875-0.52857 1.1875-1.1875-0.52857-1.2188-1.1875-1.2188zm4.3125 0c-0.65893 0-1.1875 0.55982-1.1875 1.2188 0 0.65893 0.52857 1.1875 1.1875 1.1875s1.1875-0.52857 1.1875-1.1875-0.52857-1.2188-1.1875-1.2188zm4.2812 0c-0.65893 0-1.1875 0.55982-1.1875 1.2188 0 0.65893 0.52857 1.1875 1.1875 1.1875s1.1875-0.52857 1.1875-1.1875-0.52857-1.2188-1.1875-1.2188zm4.3125 0c-0.65893 0-1.1875 0.55982-1.1875 1.2188 0 0.65893 0.52857 1.1875 1.1875 1.1875s1.1875-0.52857 1.1875-1.1875-0.52857-1.2188-1.1875-1.2188zm4.2812 0c-0.65893 0-1.1875 0.55982-1.1875 1.2188 0 0.65893 0.52857 1.1875 1.1875 1.1875s1.1875-0.52857 1.1875-1.1875-0.52857-1.2188-1.1875-1.2188zm4.3125 0c-0.65893 0-1.1875 0.55982-1.1875 1.2188 0 0.65893 0.52857 1.1875 1.1875 1.1875s1.1875-0.52857 1.1875-1.1875-0.52857-1.2188-1.1875-1.2188zm4.2812 0c-0.65893 0-1.1875 0.55982-1.1875 1.2188 0 0.65893 0.52857 1.1875 1.1875 1.1875s1.1875-0.52857 1.1875-1.1875-0.52857-1.2188-1.1875-1.2188zm4.3125 0c-0.65893 0-1.1875 0.55982-1.1875 1.2188 0 0.65893 0.52857 1.1875 1.1875 1.1875s1.1875-0.52857 1.1875-1.1875-0.52857-1.2188-1.1875-1.2188zm-163.27 0.469c-0.65893 0-1.2188 0.52857-1.2188 1.1875s0.55982 1.1875 1.2188 1.1875c0.65893 0 1.1875-0.52857 1.1875-1.1875s-0.52857-1.1875-1.1875-1.1875zm4.2812 0c-0.65893 0-1.1875 0.52857-1.1875 1.1875s0.52857 1.1875 1.1875 1.1875 1.1875-0.52857 1.1875-1.1875-0.52857-1.1875-1.1875-1.1875zm4.3125 0c-0.65893 0-1.2188 0.52857-1.2188 1.1875s0.55982 1.1875 1.2188 1.1875c0.65893 0 1.1875-0.52857 1.1875-1.1875s-0.52857-1.1875-1.1875-1.1875zm4.2812 0c-0.65893 0-1.1875 0.52857-1.1875 1.1875s0.52857 1.1875 1.1875 1.1875 1.1875-0.52857 1.1875-1.1875-0.52857-1.1875-1.1875-1.1875zm4.3125 0c-0.65893 0-1.2188 0.52857-1.2188 1.1875s0.55982 1.1875 1.2188 1.1875c0.65893 0 1.1875-0.52857 1.1875-1.1875s-0.52857-1.1875-1.1875-1.1875zm4.2812 0c-0.65893 0-1.1875 0.52857-1.1875 1.1875s0.52857 1.1875 1.1875 1.1875 1.1875-0.52857 1.1875-1.1875-0.52857-1.1875-1.1875-1.1875zm4.3125 0c-0.65893 0-1.2188 0.52857-1.2188 1.1875s0.55982 1.1875 1.2188 1.1875c0.65893 0 1.1875-0.52857 1.1875-1.1875s-0.52857-1.1875-1.1875-1.1875zm4.2812 0c-0.65893 0-1.1875 0.52857-1.1875 1.1875s0.52857 1.1875 1.1875 1.1875 1.1875-0.52857 1.1875-1.1875-0.52857-1.1875-1.1875-1.1875zm4.3125 0c-0.65893 0-1.2188 0.52857-1.2188 1.1875s0.55982 1.1875 1.2188 1.1875c0.65893 0 1.1875-0.52857 1.1875-1.1875s-0.52857-1.1875-1.1875-1.1875zm4.2812 0c-0.65893 0-1.1875 0.52857-1.1875 1.1875s0.52857 1.1875 1.1875 1.1875 1.1875-0.52857 1.1875-1.1875-0.52857-1.1875-1.1875-1.1875zm4.3125 0c-0.65893 0-1.2188 0.52857-1.2188 1.1875s0.55982 1.1875 1.2188 1.1875c0.65893 0 1.1875-0.52857 1.1875-1.1875s-0.52857-1.1875-1.1875-1.1875zm4.2812 0c-0.65893 0-1.1875 0.52857-1.1875 1.1875s0.52857 1.1875 1.1875 1.1875 1.1875-0.52857 1.1875-1.1875-0.52857-1.1875-1.1875-1.1875zm4.3125 0c-0.65893 0-1.2188 0.52857-1.2188 1.1875s0.55982 1.1875 1.2188 1.1875c0.65893 0 1.1875-0.52857 1.1875-1.1875s-0.52857-1.1875-1.1875-1.1875zm4.2812 0c-0.65893 0-1.1875 0.52857-1.1875 1.1875s0.52857 1.1875 1.1875 1.1875 1.1875-0.52857 1.1875-1.1875-0.52857-1.1875-1.1875-1.1875zm4.3125 0c-0.65893 0-1.2188 0.52857-1.2188 1.1875s0.55982 1.1875 1.2188 1.1875c0.65893 0 1.1875-0.52857 1.1875-1.1875s-0.52857-1.1875-1.1875-1.1875zm4.2812 0c-0.65893 0-1.1875 0.52857-1.1875 1.1875s0.52857 1.1875 1.1875 1.1875 1.1875-0.52857 1.1875-1.1875-0.52857-1.1875-1.1875-1.1875zm4.3125 0c-0.65893 0-1.2188 0.52857-1.2188 1.1875s0.55982 1.1875 1.2188 1.1875c0.65893 0 1.1875-0.52857 1.1875-1.1875s-0.52857-1.1875-1.1875-1.1875zm4.2812 0c-0.65893 0-1.1875 0.52857-1.1875 1.1875s0.52857 1.1875 1.1875 1.1875 1.1875-0.52857 1.1875-1.1875-0.52857-1.1875-1.1875-1.1875zm4.3125 0c-0.65893 0-1.2188 0.52857-1.2188 1.1875s0.55982 1.1875 1.2188 1.1875c0.65893 0 1.1875-0.52857 1.1875-1.1875s-0.52857-1.1875-1.1875-1.1875zm4.2812 0c-0.65893 0-1.1875 0.52857-1.1875 1.1875s0.52857 1.1875 1.1875 1.1875 1.1875-0.52857 1.1875-1.1875-0.52857-1.1875-1.1875-1.1875zm4.3125 0c-0.65893 0-1.2188 0.52857-1.2188 1.1875s0.55982 1.1875 1.2188 1.1875c0.65893 0 1.1875-0.52857 1.1875-1.1875s-0.52857-1.1875-1.1875-1.1875zm4.2812 0c-0.65893 0-1.1875 0.52857-1.1875 1.1875s0.52857 1.1875 1.1875 1.1875 1.1875-0.52857 1.1875-1.1875-0.52857-1.1875-1.1875-1.1875zm4.3125 0c-0.65893 0-1.2188 0.52857-1.2188 1.1875s0.55982 1.1875 1.2188 1.1875c0.65893 0 1.1875-0.52857 1.1875-1.1875s-0.52857-1.1875-1.1875-1.1875zm4.2812 0c-0.65893 0-1.1875 0.52857-1.1875 1.1875s0.52857 1.1875 1.1875 1.1875 1.1875-0.52857 1.1875-1.1875-0.52857-1.1875-1.1875-1.1875zm4.3125 0c-0.65893 0-1.2188 0.52857-1.2188 1.1875s0.55982 1.1875 1.2188 1.1875c0.65893 0 1.1875-0.52857 1.1875-1.1875s-0.52857-1.1875-1.1875-1.1875zm4.2812 0c-0.65893 0-1.1875 0.52857-1.1875 1.1875s0.52857 1.1875 1.1875 1.1875 1.1875-0.52857 1.1875-1.1875-0.52857-1.1875-1.1875-1.1875zm4.3125 0c-0.65893 0-1.2188 0.52857-1.2188 1.1875s0.55982 1.1875 1.2188 1.1875c0.65893 0 1.1875-0.52857 1.1875-1.1875s-0.52857-1.1875-1.1875-1.1875zm4.2812 0c-0.65893 0-1.1875 0.52857-1.1875 1.1875s0.52857 1.1875 1.1875 1.1875 1.1875-0.52857 1.1875-1.1875-0.52857-1.1875-1.1875-1.1875zm4.3125 0c-0.65893 0-1.2188 0.52857-1.2188 1.1875s0.55982 1.1875 1.2188 1.1875c0.65893 0 1.1875-0.52857 1.1875-1.1875s-0.52857-1.1875-1.1875-1.1875zm4.2812 0c-0.65893 0-1.1875 0.52857-1.1875 1.1875s0.52857 1.1875 1.1875 1.1875 1.1875-0.52857 1.1875-1.1875-0.52857-1.1875-1.1875-1.1875zm4.3125 2.7188c-0.65893 0-1.2188 0.52857-1.2188 1.1875s0.55982 1.1875 1.2188 1.1875c0.65893 0 1.1875-0.52857 1.1875-1.1875s-0.52857-1.1875-1.1875-1.1875zm4.2812 0c-0.65893 0-1.1875 0.52857-1.1875 1.1875s0.52857 1.1875 1.1875 1.1875 1.1875-0.52857 1.1875-1.1875-0.52857-1.1875-1.1875-1.1875zm4.3125 0c-0.65893 0-1.1875 0.52857-1.1875 1.1875s0.52857 1.1875 1.1875 1.1875 1.1875-0.52857 1.1875-1.1875-0.52857-1.1875-1.1875-1.1875zm4.2812 0c-0.65893 0-1.1875 0.52857-1.1875 1.1875s0.52857 1.1875 1.1875 1.1875 1.1875-0.52857 1.1875-1.1875-0.52857-1.1875-1.1875-1.1875zm4.3125 0c-0.65893 0-1.1875 0.52857-1.1875 1.1875s0.52857 1.1875 1.1875 1.1875 1.1875-0.52857 1.1875-1.1875-0.52857-1.1875-1.1875-1.1875zm4.2812 0c-0.65893 0-1.1875 0.52857-1.1875 1.1875s0.52857 1.1875 1.1875 1.1875 1.1875-0.52857 1.1875-1.1875-0.52857-1.1875-1.1875-1.1875zm4.3125 0c-0.65893 0-1.1875 0.52857-1.1875 1.1875s0.52857 1.1875 1.1875 1.1875 1.1875-0.52857 1.1875-1.1875-0.52857-1.1875-1.1875-1.1875zm4.2812 0c-0.65893 0-1.1875 0.52857-1.1875 1.1875s0.52857 1.1875 1.1875 1.1875 1.1875-0.52857 1.1875-1.1875-0.52857-1.1875-1.1875-1.1875zm4.3125 0c-0.65893 0-1.1875 0.52857-1.1875 1.1875s0.52857 1.1875 1.1875 1.1875 1.1875-0.52857 1.1875-1.1875-0.52857-1.1875-1.1875-1.1875zm-163.28 0.4375c-0.65893 0-1.2188 0.52857-1.2188 1.1875s0.55982 1.1875 1.2188 1.1875c0.65893 0 1.1875-0.52857 1.1875-1.1875s-0.52857-1.1875-1.1875-1.1875zm4.2812 0c-0.65893 0-1.1875 0.52857-1.1875 1.1875s0.52857 1.1875 1.1875 1.1875 1.1875-0.52857 1.1875-1.1875-0.52857-1.1875-1.1875-1.1875zm4.3125 0c-0.65893 0-1.2188 0.52857-1.2188 1.1875s0.55982 1.1875 1.2188 1.1875c0.65893 0 1.1875-0.52857 1.1875-1.1875s-0.52857-1.1875-1.1875-1.1875zm4.2812 0c-0.65893 0-1.1875 0.52857-1.1875 1.1875s0.52857 1.1875 1.1875 1.1875 1.1875-0.52857 1.1875-1.1875-0.52857-1.1875-1.1875-1.1875zm4.3125 0c-0.65893 0-1.2188 0.52857-1.2188 1.1875s0.55982 1.1875 1.2188 1.1875c0.65893 0 1.1875-0.52857 1.1875-1.1875s-0.52857-1.1875-1.1875-1.1875zm4.2812 0c-0.65893 0-1.1875 0.52857-1.1875 1.1875s0.52857 1.1875 1.1875 1.1875 1.1875-0.52857 1.1875-1.1875-0.52857-1.1875-1.1875-1.1875zm4.3125 0c-0.65893 0-1.2188 0.52857-1.2188 1.1875s0.55982 1.1875 1.2188 1.1875c0.65893 0 1.1875-0.52857 1.1875-1.1875s-0.52857-1.1875-1.1875-1.1875zm4.2812 0c-0.65893 0-1.1875 0.52857-1.1875 1.1875s0.52857 1.1875 1.1875 1.1875 1.1875-0.52857 1.1875-1.1875-0.52857-1.1875-1.1875-1.1875zm4.3125 0c-0.65893 0-1.2188 0.52857-1.2188 1.1875s0.55982 1.1875 1.2188 1.1875c0.65893 0 1.1875-0.52857 1.1875-1.1875s-0.52857-1.1875-1.1875-1.1875zm4.2812 0c-0.65893 0-1.1875 0.52857-1.1875 1.1875s0.52857 1.1875 1.1875 1.1875 1.1875-0.52857 1.1875-1.1875-0.52857-1.1875-1.1875-1.1875zm4.3125 0c-0.65893 0-1.2188 0.52857-1.2188 1.1875s0.55982 1.1875 1.2188 1.1875c0.65893 0 1.1875-0.52857 1.1875-1.1875s-0.52857-1.1875-1.1875-1.1875zm4.2812 0c-0.65893 0-1.1875 0.52857-1.1875 1.1875s0.52857 1.1875 1.1875 1.1875 1.1875-0.52857 1.1875-1.1875-0.52857-1.1875-1.1875-1.1875zm4.3125 0c-0.65893 0-1.2188 0.52857-1.2188 1.1875s0.55982 1.1875 1.2188 1.1875c0.65893 0 1.1875-0.52857 1.1875-1.1875s-0.52857-1.1875-1.1875-1.1875zm4.2812 0c-0.65893 0-1.1875 0.52857-1.1875 1.1875s0.52857 1.1875 1.1875 1.1875 1.1875-0.52857 1.1875-1.1875-0.52857-1.1875-1.1875-1.1875zm4.3125 0c-0.65893 0-1.2188 0.52857-1.2188 1.1875s0.55982 1.1875 1.2188 1.1875c0.65893 0 1.1875-0.52857 1.1875-1.1875s-0.52857-1.1875-1.1875-1.1875zm4.2812 0c-0.65893 0-1.1875 0.52857-1.1875 1.1875s0.52857 1.1875 1.1875 1.1875 1.1875-0.52857 1.1875-1.1875-0.52857-1.1875-1.1875-1.1875zm4.3125 0c-0.65893 0-1.2188 0.52857-1.2188 1.1875s0.55982 1.1875 1.2188 1.1875c0.65893 0 1.1875-0.52857 1.1875-1.1875s-0.52857-1.1875-1.1875-1.1875zm4.2812 0c-0.65893 0-1.1875 0.52857-1.1875 1.1875s0.52857 1.1875 1.1875 1.1875 1.1875-0.52857 1.1875-1.1875-0.52857-1.1875-1.1875-1.1875zm4.3125 0c-0.65893 0-1.2188 0.52857-1.2188 1.1875s0.55982 1.1875 1.2188 1.1875c0.65893 0 1.1875-0.52857 1.1875-1.1875s-0.52857-1.1875-1.1875-1.1875zm4.2812 0c-0.65893 0-1.1875 0.52857-1.1875 1.1875s0.52857 1.1875 1.1875 1.1875 1.1875-0.52857 1.1875-1.1875-0.52857-1.1875-1.1875-1.1875zm4.3125 0c-0.65893 0-1.2188 0.52857-1.2188 1.1875s0.55982 1.1875 1.2188 1.1875c0.65893 0 1.1875-0.52857 1.1875-1.1875s-0.52857-1.1875-1.1875-1.1875zm4.2812 0c-0.65893 0-1.1875 0.52857-1.1875 1.1875s0.52857 1.1875 1.1875 1.1875 1.1875-0.52857 1.1875-1.1875-0.52857-1.1875-1.1875-1.1875zm4.3125 0c-0.65893 0-1.2188 0.52857-1.2188 1.1875s0.55982 1.1875 1.2188 1.1875c0.65893 0 1.1875-0.52857 1.1875-1.1875s-0.52857-1.1875-1.1875-1.1875zm4.2812 0c-0.65893 0-1.1875 0.52857-1.1875 1.1875s0.52857 1.1875 1.1875 1.1875 1.1875-0.52857 1.1875-1.1875-0.52857-1.1875-1.1875-1.1875zm4.3125 0c-0.65893 0-1.2188 0.52857-1.2188 1.1875s0.55982 1.1875 1.2188 1.1875c0.65893 0 1.1875-0.52857 1.1875-1.1875s-0.52857-1.1875-1.1875-1.1875zm4.2812 0c-0.65893 0-1.1875 0.52857-1.1875 1.1875s0.52857 1.1875 1.1875 1.1875 1.1875-0.52857 1.1875-1.1875-0.52857-1.1875-1.1875-1.1875zm4.3125 0c-0.65893 0-1.2188 0.52857-1.2188 1.1875s0.55982 1.1875 1.2188 1.1875c0.65893 0 1.1875-0.52857 1.1875-1.1875s-0.52857-1.1875-1.1875-1.1875zm4.2812 0c-0.65893 0-1.1875 0.52857-1.1875 1.1875s0.52857 1.1875 1.1875 1.1875 1.1875-0.52857 1.1875-1.1875-0.52857-1.1875-1.1875-1.1875zm4.3125 0c-0.65893 0-1.2188 0.52857-1.2188 1.1875s0.55982 1.1875 1.2188 1.1875c0.65893 0 1.1875-0.52857 1.1875-1.1875s-0.52857-1.1875-1.1875-1.1875zm4.2812 0c-0.65893 0-1.1875 0.52857-1.1875 1.1875s0.52857 1.1875 1.1875 1.1875 1.1875-0.52857 1.1875-1.1875-0.52857-1.1875-1.1875-1.1875zm4.3125 2.9375c-0.65893 0-1.2188 0.52857-1.2188 1.1875s0.55982 1.2188 1.2188 1.2188c0.65893 0 1.1875-0.55982 1.1875-1.2188 0-0.65893-0.52857-1.1875-1.1875-1.1875zm4.2812 0c-0.65893 0-1.1875 0.52857-1.1875 1.1875s0.52857 1.2188 1.1875 1.2188 1.1875-0.55982 1.1875-1.2188c0-0.65893-0.52857-1.1875-1.1875-1.1875zm4.3125 0c-0.65893 0-1.1875 0.52857-1.1875 1.1875s0.52857 1.2188 1.1875 1.2188 1.1875-0.55982 1.1875-1.2188c0-0.65893-0.52857-1.1875-1.1875-1.1875zm4.2812 0c-0.65893 0-1.1875 0.52857-1.1875 1.1875s0.52857 1.2188 1.1875 1.2188 1.1875-0.55982 1.1875-1.2188c0-0.65893-0.52857-1.1875-1.1875-1.1875zm4.3125 0c-0.65893 0-1.1875 0.52857-1.1875 1.1875s0.52857 1.2188 1.1875 1.2188 1.1875-0.55982 1.1875-1.2188c0-0.65893-0.52857-1.1875-1.1875-1.1875zm4.2812 0c-0.65893 0-1.1875 0.52857-1.1875 1.1875s0.52857 1.2188 1.1875 1.2188 1.1875-0.55982 1.1875-1.2188c0-0.65893-0.52857-1.1875-1.1875-1.1875zm4.3125 0c-0.65893 0-1.1875 0.52857-1.1875 1.1875s0.52857 1.2188 1.1875 1.2188 1.1875-0.55982 1.1875-1.2188c0-0.65893-0.52857-1.1875-1.1875-1.1875zm4.2812 0c-0.65893 0-1.1875 0.52857-1.1875 1.1875s0.52857 1.2188 1.1875 1.2188 1.1875-0.55982 1.1875-1.2188c0-0.65893-0.52857-1.1875-1.1875-1.1875zm4.3125 0c-0.65893 0-1.1875 0.52857-1.1875 1.1875s0.52857 1.2188 1.1875 1.2188 1.1875-0.55982 1.1875-1.2188c0-0.65893-0.52857-1.1875-1.1875-1.1875zm-163.14 0.468c-0.65893 0-1.2188 0.52857-1.2188 1.1875s0.55982 1.1875 1.2188 1.1875c0.65893 0 1.1875-0.52857 1.1875-1.1875s-0.52857-1.1875-1.1875-1.1875zm4.2812 0c-0.65893 0-1.1875 0.52857-1.1875 1.1875s0.52857 1.1875 1.1875 1.1875 1.1875-0.52857 1.1875-1.1875-0.52857-1.1875-1.1875-1.1875zm4.3125 0c-0.65893 0-1.2188 0.52857-1.2188 1.1875s0.55982 1.1875 1.2188 1.1875c0.65893 0 1.1875-0.52857 1.1875-1.1875s-0.52857-1.1875-1.1875-1.1875zm4.2812 0c-0.65893 0-1.1875 0.52857-1.1875 1.1875s0.52857 1.1875 1.1875 1.1875 1.1875-0.52857 1.1875-1.1875-0.52857-1.1875-1.1875-1.1875zm4.3125 0c-0.65893 0-1.2188 0.52857-1.2188 1.1875s0.55982 1.1875 1.2188 1.1875c0.65893 0 1.1875-0.52857 1.1875-1.1875s-0.52857-1.1875-1.1875-1.1875zm4.2812 0c-0.65893 0-1.1875 0.52857-1.1875 1.1875s0.52857 1.1875 1.1875 1.1875 1.1875-0.52857 1.1875-1.1875-0.52857-1.1875-1.1875-1.1875zm4.3125 0c-0.65893 0-1.2188 0.52857-1.2188 1.1875s0.55982 1.1875 1.2188 1.1875c0.65893 0 1.1875-0.52857 1.1875-1.1875s-0.52857-1.1875-1.1875-1.1875zm4.2812 0c-0.65893 0-1.1875 0.52857-1.1875 1.1875s0.52857 1.1875 1.1875 1.1875 1.1875-0.52857 1.1875-1.1875-0.52857-1.1875-1.1875-1.1875zm4.3125 0c-0.65893 0-1.2188 0.52857-1.2188 1.1875s0.55982 1.1875 1.2188 1.1875c0.65893 0 1.1875-0.52857 1.1875-1.1875s-0.52857-1.1875-1.1875-1.1875zm4.2812 0c-0.65893 0-1.1875 0.52857-1.1875 1.1875s0.52857 1.1875 1.1875 1.1875 1.1875-0.52857 1.1875-1.1875-0.52857-1.1875-1.1875-1.1875zm4.3125 0c-0.65893 0-1.2188 0.52857-1.2188 1.1875s0.55982 1.1875 1.2188 1.1875c0.65893 0 1.1875-0.52857 1.1875-1.1875s-0.52857-1.1875-1.1875-1.1875zm4.2812 0c-0.65893 0-1.1875 0.52857-1.1875 1.1875s0.52857 1.1875 1.1875 1.1875 1.1875-0.52857 1.1875-1.1875-0.52857-1.1875-1.1875-1.1875zm4.3125 0c-0.65893 0-1.2188 0.52857-1.2188 1.1875s0.55982 1.1875 1.2188 1.1875c0.65893 0 1.1875-0.52857 1.1875-1.1875s-0.52857-1.1875-1.1875-1.1875zm4.2812 0c-0.65893 0-1.1875 0.52857-1.1875 1.1875s0.52857 1.1875 1.1875 1.1875 1.1875-0.52857 1.1875-1.1875-0.52857-1.1875-1.1875-1.1875zm4.3125 0c-0.65893 0-1.2188 0.52857-1.2188 1.1875s0.55982 1.1875 1.2188 1.1875c0.65893 0 1.1875-0.52857 1.1875-1.1875s-0.52857-1.1875-1.1875-1.1875zm4.2812 0c-0.65893 0-1.1875 0.52857-1.1875 1.1875s0.52857 1.1875 1.1875 1.1875 1.1875-0.52857 1.1875-1.1875-0.52857-1.1875-1.1875-1.1875zm4.3125 0c-0.65893 0-1.2188 0.52857-1.2188 1.1875s0.55982 1.1875 1.2188 1.1875c0.65893 0 1.1875-0.52857 1.1875-1.1875s-0.52857-1.1875-1.1875-1.1875zm4.2812 0c-0.65893 0-1.1875 0.52857-1.1875 1.1875s0.52857 1.1875 1.1875 1.1875 1.1875-0.52857 1.1875-1.1875-0.52857-1.1875-1.1875-1.1875zm4.3125 0c-0.65893 0-1.2188 0.52857-1.2188 1.1875s0.55982 1.1875 1.2188 1.1875c0.65893 0 1.1875-0.52857 1.1875-1.1875s-0.52857-1.1875-1.1875-1.1875zm4.2812 0c-0.65893 0-1.1875 0.52857-1.1875 1.1875s0.52857 1.1875 1.1875 1.1875 1.1875-0.52857 1.1875-1.1875-0.52857-1.1875-1.1875-1.1875zm4.3125 0c-0.65893 0-1.2188 0.52857-1.2188 1.1875s0.55982 1.1875 1.2188 1.1875c0.65893 0 1.1875-0.52857 1.1875-1.1875s-0.52857-1.1875-1.1875-1.1875zm4.2812 0c-0.65893 0-1.1875 0.52857-1.1875 1.1875s0.52857 1.1875 1.1875 1.1875 1.1875-0.52857 1.1875-1.1875-0.52857-1.1875-1.1875-1.1875zm4.3125 0c-0.65893 0-1.2188 0.52857-1.2188 1.1875s0.55982 1.1875 1.2188 1.1875c0.65893 0 1.1875-0.52857 1.1875-1.1875s-0.52857-1.1875-1.1875-1.1875zm4.2812 0c-0.65893 0-1.1875 0.52857-1.1875 1.1875s0.52857 1.1875 1.1875 1.1875 1.1875-0.52857 1.1875-1.1875-0.52857-1.1875-1.1875-1.1875zm4.3125 0c-0.65893 0-1.2188 0.52857-1.2188 1.1875s0.55982 1.1875 1.2188 1.1875c0.65893 0 1.1875-0.52857 1.1875-1.1875s-0.52857-1.1875-1.1875-1.1875zm4.2812 0c-0.65893 0-1.1875 0.52857-1.1875 1.1875s0.52857 1.1875 1.1875 1.1875 1.1875-0.52857 1.1875-1.1875-0.52857-1.1875-1.1875-1.1875zm4.3125 0c-0.65893 0-1.2188 0.52857-1.2188 1.1875s0.55982 1.1875 1.2188 1.1875c0.65893 0 1.1875-0.52857 1.1875-1.1875s-0.52857-1.1875-1.1875-1.1875zm4.2812 0c-0.65893 0-1.1875 0.52857-1.1875 1.1875s0.52857 1.1875 1.1875 1.1875 1.1875-0.52857 1.1875-1.1875-0.52857-1.1875-1.1875-1.1875zm4.3125 0c-0.65893 0-1.2188 0.52857-1.2188 1.1875s0.55982 1.1875 1.2188 1.1875c0.65893 0 1.1875-0.52857 1.1875-1.1875s-0.52857-1.1875-1.1875-1.1875zm4.2812 0c-0.65893 0-1.1875 0.52857-1.1875 1.1875s0.52857 1.1875 1.1875 1.1875 1.1875-0.52857 1.1875-1.1875-0.52857-1.1875-1.1875-1.1875zm4.3125 3.1562c-0.65893 0-1.2188 0.52857-1.2188 1.1875s0.55982 1.1875 1.2188 1.1875c0.65893 0 1.1875-0.52857 1.1875-1.1875s-0.52857-1.1875-1.1875-1.1875zm4.2812 0c-0.65893 0-1.1875 0.52857-1.1875 1.1875s0.52857 1.1875 1.1875 1.1875 1.1875-0.52857 1.1875-1.1875-0.52857-1.1875-1.1875-1.1875zm4.3125 0c-0.65893 0-1.1875 0.52857-1.1875 1.1875s0.52857 1.1875 1.1875 1.1875 1.1875-0.52857 1.1875-1.1875-0.52857-1.1875-1.1875-1.1875zm4.2812 0c-0.65893 0-1.1875 0.52857-1.1875 1.1875s0.52857 1.1875 1.1875 1.1875 1.1875-0.52857 1.1875-1.1875-0.52857-1.1875-1.1875-1.1875zm4.3125 0c-0.65893 0-1.1875 0.52857-1.1875 1.1875s0.52857 1.1875 1.1875 1.1875 1.1875-0.52857 1.1875-1.1875-0.52857-1.1875-1.1875-1.1875zm4.2812 0c-0.65893 0-1.1875 0.52857-1.1875 1.1875s0.52857 1.1875 1.1875 1.1875 1.1875-0.52857 1.1875-1.1875-0.52857-1.1875-1.1875-1.1875zm4.3125 0c-0.65893 0-1.1875 0.52857-1.1875 1.1875s0.52857 1.1875 1.1875 1.1875 1.1875-0.52857 1.1875-1.1875-0.52857-1.1875-1.1875-1.1875zm4.2812 0c-0.65893 0-1.1875 0.52857-1.1875 1.1875s0.52857 1.1875 1.1875 1.1875 1.1875-0.52857 1.1875-1.1875-0.52857-1.1875-1.1875-1.1875zm-154.62 0.437c-0.65893 0-1.1875 0.55982-1.1875 1.2188 0 0.65893 0.52857 1.1875 1.1875 1.1875s1.1875-0.52857 1.1875-1.1875-0.52857-1.2188-1.1875-1.2188zm4.3125 0c-0.65893 0-1.2188 0.55982-1.2188 1.2188 0 0.65893 0.55982 1.1875 1.2188 1.1875 0.65893 0 1.1875-0.52857 1.1875-1.1875s-0.52857-1.2188-1.1875-1.2188zm4.2812 0c-0.65893 0-1.1875 0.55982-1.1875 1.2188 0 0.65893 0.52857 1.1875 1.1875 1.1875s1.1875-0.52857 1.1875-1.1875-0.52857-1.2188-1.1875-1.2188zm4.3125 0c-0.65893 0-1.2188 0.55982-1.2188 1.2188 0 0.65893 0.55982 1.1875 1.2188 1.1875 0.65893 0 1.1875-0.52857 1.1875-1.1875s-0.52857-1.2188-1.1875-1.2188zm4.2812 0c-0.65893 0-1.1875 0.55982-1.1875 1.2188 0 0.65893 0.52857 1.1875 1.1875 1.1875s1.1875-0.52857 1.1875-1.1875-0.52857-1.2188-1.1875-1.2188zm4.3125 0c-0.65893 0-1.2188 0.55982-1.2188 1.2188 0 0.65893 0.55982 1.1875 1.2188 1.1875 0.65893 0 1.1875-0.52857 1.1875-1.1875s-0.52857-1.2188-1.1875-1.2188zm4.2812 0c-0.65893 0-1.1875 0.55982-1.1875 1.2188 0 0.65893 0.52857 1.1875 1.1875 1.1875s1.1875-0.52857 1.1875-1.1875-0.52857-1.2188-1.1875-1.2188zm4.3125 0c-0.65893 0-1.2188 0.55982-1.2188 1.2188 0 0.65893 0.55982 1.1875 1.2188 1.1875 0.65893 0 1.1875-0.52857 1.1875-1.1875s-0.52857-1.2188-1.1875-1.2188zm4.2812 0c-0.65893 0-1.1875 0.55982-1.1875 1.2188 0 0.65893 0.52857 1.1875 1.1875 1.1875s1.1875-0.52857 1.1875-1.1875-0.52857-1.2188-1.1875-1.2188zm4.3125 0c-0.65893 0-1.2188 0.55982-1.2188 1.2188 0 0.65893 0.55982 1.1875 1.2188 1.1875 0.65893 0 1.1875-0.52857 1.1875-1.1875s-0.52857-1.2188-1.1875-1.2188zm4.2812 0c-0.65893 0-1.1875 0.55982-1.1875 1.2188 0 0.65893 0.52857 1.1875 1.1875 1.1875s1.1875-0.52857 1.1875-1.1875-0.52857-1.2188-1.1875-1.2188zm4.3125 0c-0.65893 0-1.2188 0.55982-1.2188 1.2188 0 0.65893 0.55982 1.1875 1.2188 1.1875 0.65893 0 1.1875-0.52857 1.1875-1.1875s-0.52857-1.2188-1.1875-1.2188zm4.2812 0c-0.65893 0-1.1875 0.55982-1.1875 1.2188 0 0.65893 0.52857 1.1875 1.1875 1.1875s1.1875-0.52857 1.1875-1.1875-0.52857-1.2188-1.1875-1.2188zm4.3125 0c-0.65893 0-1.2188 0.55982-1.2188 1.2188 0 0.65893 0.55982 1.1875 1.2188 1.1875 0.65893 0 1.1875-0.52857 1.1875-1.1875s-0.52857-1.2188-1.1875-1.2188zm4.2812 0c-0.65893 0-1.1875 0.55982-1.1875 1.2188 0 0.65893 0.52857 1.1875 1.1875 1.1875s1.1875-0.52857 1.1875-1.1875-0.52857-1.2188-1.1875-1.2188zm4.3125 0c-0.65893 0-1.2188 0.55982-1.2188 1.2188 0 0.65893 0.55982 1.1875 1.2188 1.1875 0.65893 0 1.1875-0.52857 1.1875-1.1875s-0.52857-1.2188-1.1875-1.2188zm4.2812 0c-0.65893 0-1.1875 0.55982-1.1875 1.2188 0 0.65893 0.52857 1.1875 1.1875 1.1875s1.1875-0.52857 1.1875-1.1875-0.52857-1.2188-1.1875-1.2188zm4.3125 0c-0.65893 0-1.2188 0.55982-1.2188 1.2188 0 0.65893 0.55982 1.1875 1.2188 1.1875 0.65893 0 1.1875-0.52857 1.1875-1.1875s-0.52857-1.2188-1.1875-1.2188zm4.2812 0c-0.65893 0-1.1875 0.55982-1.1875 1.2188 0 0.65893 0.52857 1.1875 1.1875 1.1875s1.1875-0.52857 1.1875-1.1875-0.52857-1.2188-1.1875-1.2188zm4.3125 0c-0.65893 0-1.2188 0.55982-1.2188 1.2188 0 0.65893 0.55982 1.1875 1.2188 1.1875 0.65893 0 1.1875-0.52857 1.1875-1.1875s-0.52857-1.2188-1.1875-1.2188zm4.2812 0c-0.62 0-1.15 0.56-1.15 1.219 0 0.65893 0.52857 1.1875 1.1875 1.1875s1.1875-0.52857 1.1875-1.1875-0.52857-1.2188-1.1875-1.2188zm4.3125 0c-0.65893 0-1.2188 0.55982-1.2188 1.2188 0 0.65893 0.55982 1.1875 1.2188 1.1875 0.65893 0 1.1875-0.52857 1.1875-1.1875s-0.52857-1.2188-1.1875-1.2188zm4.2812 0c-0.65893 0-1.1875 0.55982-1.1875 1.2188 0 0.65893 0.52857 1.1875 1.1875 1.1875s1.1875-0.52857 1.1875-1.1875-0.52857-1.2188-1.1875-1.2188zm4.3125 0c-0.65893 0-1.2188 0.55982-1.2188 1.2188 0 0.65893 0.55982 1.1875 1.2188 1.1875 0.65893 0 1.1875-0.52857 1.1875-1.1875s-0.52857-1.2188-1.1875-1.2188zm4.2812 0c-0.65893 0-1.1875 0.55982-1.1875 1.2188 0 0.65893 0.52857 1.1875 1.1875 1.1875s1.1875-0.52857 1.1875-1.1875-0.52857-1.2188-1.1875-1.2188zm4.3125 0c-0.65893 0-1.2188 0.55982-1.2188 1.2188 0 0.65893 0.55982 1.1875 1.2188 1.1875 0.65893 0 1.1875-0.52857 1.1875-1.1875s-0.52857-1.2188-1.1875-1.2188zm4.2812 0c-0.65893 0-1.1875 0.55982-1.1875 1.2188 0 0.65893 0.52857 1.1875 1.1875 1.1875s1.1875-0.52857 1.1875-1.1875-0.52857-1.2188-1.1875-1.2188zm4.3125 0c-0.65893 0-1.2188 0.55982-1.2188 1.2188 0 0.65893 0.55982 1.1875 1.2188 1.1875 0.65893 0 1.1875-0.52857 1.1875-1.1875s-0.52857-1.2188-1.1875-1.2188zm4.2812 0c-0.65893 0-1.1875 0.55982-1.1875 1.2188 0 0.65893 0.52857 1.1875 1.1875 1.1875s1.1875-0.52857 1.1875-1.1875-0.52857-1.2188-1.1875-1.2188z"/>
      <path id="path5410" opacity=".73" filter="url(#filter5430)" d="m435.52 808.59c-0.65893 0-1.2188 0.55982-1.2188 1.2188 0 0.65893 0.55982 1.1875 1.2188 1.1875 0.65893 0 1.1875-0.52857 1.1875-1.1875s-0.52857-1.2188-1.1875-1.2188zm4.2812 0c-0.65893 0-1.1875 0.55982-1.1875 1.2188 0 0.65893 0.52857 1.1875 1.1875 1.1875s1.1875-0.52857 1.1875-1.1875-0.52857-1.2188-1.1875-1.2188zm4.3125 0c-0.65893 0-1.1875 0.55982-1.1875 1.2188 0 0.65893 0.52857 1.1875 1.1875 1.1875s1.1875-0.52857 1.1875-1.1875-0.52857-1.2188-1.1875-1.2188zm4.2812 0c-0.65893 0-1.1875 0.55982-1.1875 1.2188 0 0.65893 0.52857 1.1875 1.1875 1.1875s1.1875-0.52857 1.1875-1.1875-0.52857-1.2188-1.1875-1.2188zm4.3125 0c-0.65893 0-1.1875 0.55982-1.1875 1.2188 0 0.65893 0.52857 1.1875 1.1875 1.1875s1.1875-0.52857 1.1875-1.1875-0.52857-1.2188-1.1875-1.2188zm4.2812 0c-0.65893 0-1.1875 0.55982-1.1875 1.2188 0 0.65893 0.52857 1.1875 1.1875 1.1875s1.1875-0.52857 1.1875-1.1875-0.52857-1.2188-1.1875-1.2188zm4.3125 0c-0.65893 0-1.1875 0.55982-1.1875 1.2188 0 0.65893 0.52857 1.1875 1.1875 1.1875s1.1875-0.52857 1.1875-1.1875-0.52857-1.2188-1.1875-1.2188zm4.2812 0c-0.65893 0-1.1875 0.55982-1.1875 1.2188 0 0.65893 0.52857 1.1875 1.1875 1.1875s1.1875-0.52857 1.1875-1.1875-0.52857-1.2188-1.1875-1.2188zm4.3125 0c-0.65893 0-1.1875 0.55982-1.1875 1.2188 0 0.65893 0.52857 1.1875 1.1875 1.1875s1.1875-0.52857 1.1875-1.1875-0.52857-1.2188-1.1875-1.2188zm-163.28 0.46875c-0.65893 0-1.2188 0.52857-1.2188 1.1875s0.55982 1.1875 1.2188 1.1875c0.65893 0 1.1875-0.52857 1.1875-1.1875s-0.52857-1.1875-1.1875-1.1875zm4.2812 0c-0.65893 0-1.1875 0.52857-1.1875 1.1875s0.52857 1.1875 1.1875 1.1875 1.1875-0.52857 1.1875-1.1875-0.52857-1.1875-1.1875-1.1875zm4.3125 0c-0.65893 0-1.2188 0.52857-1.2188 1.1875s0.55982 1.1875 1.2188 1.1875c0.65893 0 1.1875-0.52857 1.1875-1.1875s-0.52857-1.1875-1.1875-1.1875zm4.2812 0c-0.65893 0-1.1875 0.52857-1.1875 1.1875s0.52857 1.1875 1.1875 1.1875 1.1875-0.52857 1.1875-1.1875-0.52857-1.1875-1.1875-1.1875zm4.3125 0c-0.65893 0-1.2188 0.52857-1.2188 1.1875s0.55982 1.1875 1.2188 1.1875c0.65893 0 1.1875-0.52857 1.1875-1.1875s-0.52857-1.1875-1.1875-1.1875zm4.2812 0c-0.65893 0-1.1875 0.52857-1.1875 1.1875s0.52857 1.1875 1.1875 1.1875 1.1875-0.52857 1.1875-1.1875-0.52857-1.1875-1.1875-1.1875zm4.3125 0c-0.65893 0-1.2188 0.52857-1.2188 1.1875s0.55982 1.1875 1.2188 1.1875c0.65893 0 1.1875-0.52857 1.1875-1.1875s-0.52857-1.1875-1.1875-1.1875zm4.2812 0c-0.65893 0-1.1875 0.52857-1.1875 1.1875s0.52857 1.1875 1.1875 1.1875 1.1875-0.52857 1.1875-1.1875-0.52857-1.1875-1.1875-1.1875zm4.3125 0c-0.65893 0-1.2188 0.52857-1.2188 1.1875s0.55982 1.1875 1.2188 1.1875c0.65893 0 1.1875-0.52857 1.1875-1.1875s-0.52857-1.1875-1.1875-1.1875zm4.2812 0c-0.65893 0-1.1875 0.52857-1.1875 1.1875s0.52857 1.1875 1.1875 1.1875 1.1875-0.52857 1.1875-1.1875-0.52857-1.1875-1.1875-1.1875zm4.3125 0c-0.65893 0-1.2188 0.52857-1.2188 1.1875s0.55982 1.1875 1.2188 1.1875c0.65893 0 1.1875-0.52857 1.1875-1.1875s-0.52857-1.1875-1.1875-1.1875zm4.2812 0c-0.65893 0-1.1875 0.52857-1.1875 1.1875s0.52857 1.1875 1.1875 1.1875 1.1875-0.52857 1.1875-1.1875-0.52857-1.1875-1.1875-1.1875zm4.3125 0c-0.65893 0-1.2188 0.52857-1.2188 1.1875s0.55982 1.1875 1.2188 1.1875c0.65893 0 1.1875-0.52857 1.1875-1.1875s-0.52857-1.1875-1.1875-1.1875zm4.2812 0c-0.65893 0-1.1875 0.52857-1.1875 1.1875s0.52857 1.1875 1.1875 1.1875 1.1875-0.52857 1.1875-1.1875-0.52857-1.1875-1.1875-1.1875zm4.3125 0c-0.65893 0-1.2188 0.52857-1.2188 1.1875s0.55982 1.1875 1.2188 1.1875c0.65893 0 1.1875-0.52857 1.1875-1.1875s-0.52857-1.1875-1.1875-1.1875zm4.2812 0c-0.65893 0-1.1875 0.52857-1.1875 1.1875s0.52857 1.1875 1.1875 1.1875 1.1875-0.52857 1.1875-1.1875-0.52857-1.1875-1.1875-1.1875zm4.3125 0c-0.65893 0-1.2188 0.52857-1.2188 1.1875s0.55982 1.1875 1.2188 1.1875c0.65893 0 1.1875-0.52857 1.1875-1.1875s-0.52857-1.1875-1.1875-1.1875zm4.2812 0c-0.65893 0-1.1875 0.52857-1.1875 1.1875s0.52857 1.1875 1.1875 1.1875 1.1875-0.52857 1.1875-1.1875-0.52857-1.1875-1.1875-1.1875zm4.3125 0c-0.65893 0-1.2188 0.52857-1.2188 1.1875s0.55982 1.1875 1.2188 1.1875c0.65893 0 1.1875-0.52857 1.1875-1.1875s-0.52857-1.1875-1.1875-1.1875zm4.2812 0c-0.65893 0-1.1875 0.52857-1.1875 1.1875s0.52857 1.1875 1.1875 1.1875 1.1875-0.52857 1.1875-1.1875-0.52857-1.1875-1.1875-1.1875zm4.3125 0c-0.65893 0-1.2188 0.52857-1.2188 1.1875s0.55982 1.1875 1.2188 1.1875c0.65893 0 1.1875-0.52857 1.1875-1.1875s-0.52857-1.1875-1.1875-1.1875zm4.2812 0c-0.65893 0-1.1875 0.52857-1.1875 1.1875s0.52857 1.1875 1.1875 1.1875 1.1875-0.52857 1.1875-1.1875-0.52857-1.1875-1.1875-1.1875zm4.3125 0c-0.65893 0-1.2188 0.52857-1.2188 1.1875s0.55982 1.1875 1.2188 1.1875c0.65893 0 1.1875-0.52857 1.1875-1.1875s-0.52857-1.1875-1.1875-1.1875zm4.2812 0c-0.65893 0-1.1875 0.52857-1.1875 1.1875s0.52857 1.1875 1.1875 1.1875 1.1875-0.52857 1.1875-1.1875-0.52857-1.1875-1.1875-1.1875zm4.3125 0c-0.65893 0-1.2188 0.52857-1.2188 1.1875s0.55982 1.1875 1.2188 1.1875c0.65893 0 1.1875-0.52857 1.1875-1.1875s-0.52857-1.1875-1.1875-1.1875zm4.2812 0c-0.65893 0-1.1875 0.52857-1.1875 1.1875s0.52857 1.1875 1.1875 1.1875 1.1875-0.52857 1.1875-1.1875-0.52857-1.1875-1.1875-1.1875zm4.3125 0c-0.65893 0-1.2188 0.52857-1.2188 1.1875s0.55982 1.1875 1.2188 1.1875c0.65893 0 1.1875-0.52857 1.1875-1.1875s-0.52857-1.1875-1.1875-1.1875zm4.2812 0c-0.65893 0-1.1875 0.52857-1.1875 1.1875s0.52857 1.1875 1.1875 1.1875 1.1875-0.52857 1.1875-1.1875-0.52857-1.1875-1.1875-1.1875zm4.3125 0c-0.65893 0-1.2188 0.52857-1.2188 1.1875s0.55982 1.1875 1.2188 1.1875c0.65893 0 1.1875-0.52857 1.1875-1.1875s-0.52857-1.1875-1.1875-1.1875zm4.2812 0c-0.65893 0-1.1875 0.52857-1.1875 1.1875s0.52857 1.1875 1.1875 1.1875 1.1875-0.52857 1.1875-1.1875-0.52857-1.1875-1.1875-1.1875zm4.3125 2.7188c-0.65893 0-1.2188 0.52857-1.2188 1.1875s0.55982 1.1875 1.2188 1.1875c0.65893 0 1.1875-0.52857 1.1875-1.1875s-0.52857-1.1875-1.1875-1.1875zm4.2812 0c-0.65893 0-1.1875 0.52857-1.1875 1.1875s0.52857 1.1875 1.1875 1.1875 1.1875-0.52857 1.1875-1.1875-0.52857-1.1875-1.1875-1.1875zm4.3125 0c-0.65893 0-1.1875 0.52857-1.1875 1.1875s0.52857 1.1875 1.1875 1.1875 1.1875-0.52857 1.1875-1.1875-0.52857-1.1875-1.1875-1.1875zm4.2812 0c-0.65893 0-1.1875 0.52857-1.1875 1.1875s0.52857 1.1875 1.1875 1.1875 1.1875-0.52857 1.1875-1.1875-0.52857-1.1875-1.1875-1.1875zm4.3125 0c-0.65893 0-1.1875 0.52857-1.1875 1.1875s0.52857 1.1875 1.1875 1.1875 1.1875-0.52857 1.1875-1.1875-0.52857-1.1875-1.1875-1.1875zm4.2812 0c-0.65893 0-1.1875 0.52857-1.1875 1.1875s0.52857 1.1875 1.1875 1.1875 1.1875-0.52857 1.1875-1.1875-0.52857-1.1875-1.1875-1.1875zm4.3125 0c-0.65893 0-1.1875 0.52857-1.1875 1.1875s0.52857 1.1875 1.1875 1.1875 1.1875-0.52857 1.1875-1.1875-0.52857-1.1875-1.1875-1.1875zm4.2812 0c-0.65893 0-1.1875 0.52857-1.1875 1.1875s0.52857 1.1875 1.1875 1.1875 1.1875-0.52857 1.1875-1.1875-0.52857-1.1875-1.1875-1.1875zm4.3125 0c-0.65893 0-1.1875 0.52857-1.1875 1.1875s0.52857 1.1875 1.1875 1.1875 1.1875-0.52857 1.1875-1.1875-0.52857-1.1875-1.1875-1.1875zm-163.28 0.4375c-0.65893 0-1.2188 0.52857-1.2188 1.1875s0.55982 1.1875 1.2188 1.1875c0.65893 0 1.1875-0.52857 1.1875-1.1875s-0.52857-1.1875-1.1875-1.1875zm4.2812 0c-0.65893 0-1.1875 0.52857-1.1875 1.1875s0.52857 1.1875 1.1875 1.1875 1.1875-0.52857 1.1875-1.1875-0.52857-1.1875-1.1875-1.1875zm4.3125 0c-0.65893 0-1.2188 0.52857-1.2188 1.1875s0.55982 1.1875 1.2188 1.1875c0.65893 0 1.1875-0.52857 1.1875-1.1875s-0.52857-1.1875-1.1875-1.1875zm4.2812 0c-0.65893 0-1.1875 0.52857-1.1875 1.1875s0.52857 1.1875 1.1875 1.1875 1.1875-0.52857 1.1875-1.1875-0.52857-1.1875-1.1875-1.1875zm4.3125 0c-0.65893 0-1.2188 0.52857-1.2188 1.1875s0.55982 1.1875 1.2188 1.1875c0.65893 0 1.1875-0.52857 1.1875-1.1875s-0.52857-1.1875-1.1875-1.1875zm4.2812 0c-0.65893 0-1.1875 0.52857-1.1875 1.1875s0.52857 1.1875 1.1875 1.1875 1.1875-0.52857 1.1875-1.1875-0.52857-1.1875-1.1875-1.1875zm4.3125 0c-0.65893 0-1.2188 0.52857-1.2188 1.1875s0.55982 1.1875 1.2188 1.1875c0.65893 0 1.1875-0.52857 1.1875-1.1875s-0.52857-1.1875-1.1875-1.1875zm4.2812 0c-0.65893 0-1.1875 0.52857-1.1875 1.1875s0.52857 1.1875 1.1875 1.1875 1.1875-0.52857 1.1875-1.1875-0.52857-1.1875-1.1875-1.1875zm4.3125 0c-0.65893 0-1.2188 0.52857-1.2188 1.1875s0.55982 1.1875 1.2188 1.1875c0.65893 0 1.1875-0.52857 1.1875-1.1875s-0.52857-1.1875-1.1875-1.1875zm4.2812 0c-0.65893 0-1.1875 0.52857-1.1875 1.1875s0.52857 1.1875 1.1875 1.1875 1.1875-0.52857 1.1875-1.1875-0.52857-1.1875-1.1875-1.1875zm4.3125 0c-0.65893 0-1.2188 0.52857-1.2188 1.1875s0.55982 1.1875 1.2188 1.1875c0.65893 0 1.1875-0.52857 1.1875-1.1875s-0.52857-1.1875-1.1875-1.1875zm4.2812 0c-0.65893 0-1.1875 0.52857-1.1875 1.1875s0.52857 1.1875 1.1875 1.1875 1.1875-0.52857 1.1875-1.1875-0.52857-1.1875-1.1875-1.1875zm4.3125 0c-0.65893 0-1.2188 0.52857-1.2188 1.1875s0.55982 1.1875 1.2188 1.1875c0.65893 0 1.1875-0.52857 1.1875-1.1875s-0.52857-1.1875-1.1875-1.1875zm4.2812 0c-0.65893 0-1.1875 0.52857-1.1875 1.1875s0.52857 1.1875 1.1875 1.1875 1.1875-0.52857 1.1875-1.1875-0.52857-1.1875-1.1875-1.1875zm4.3125 0c-0.65893 0-1.2188 0.52857-1.2188 1.1875s0.55982 1.1875 1.2188 1.1875c0.65893 0 1.1875-0.52857 1.1875-1.1875s-0.52857-1.1875-1.1875-1.1875zm4.2812 0c-0.65893 0-1.1875 0.52857-1.1875 1.1875s0.52857 1.1875 1.1875 1.1875 1.1875-0.52857 1.1875-1.1875-0.52857-1.1875-1.1875-1.1875zm4.3125 0c-0.65893 0-1.2188 0.52857-1.2188 1.1875s0.55982 1.1875 1.2188 1.1875c0.65893 0 1.1875-0.52857 1.1875-1.1875s-0.52857-1.1875-1.1875-1.1875zm4.2812 0c-0.65893 0-1.1875 0.52857-1.1875 1.1875s0.52857 1.1875 1.1875 1.1875 1.1875-0.52857 1.1875-1.1875-0.52857-1.1875-1.1875-1.1875zm4.3125 0c-0.65893 0-1.2188 0.52857-1.2188 1.1875s0.55982 1.1875 1.2188 1.1875c0.65893 0 1.1875-0.52857 1.1875-1.1875s-0.52857-1.1875-1.1875-1.1875zm4.2812 0c-0.65893 0-1.1875 0.52857-1.1875 1.1875s0.52857 1.1875 1.1875 1.1875 1.1875-0.52857 1.1875-1.1875-0.52857-1.1875-1.1875-1.1875zm4.3125 0c-0.65893 0-1.2188 0.52857-1.2188 1.1875s0.55982 1.1875 1.2188 1.1875c0.65893 0 1.1875-0.52857 1.1875-1.1875s-0.52857-1.1875-1.1875-1.1875zm4.2812 0c-0.65893 0-1.1875 0.52857-1.1875 1.1875s0.52857 1.1875 1.1875 1.1875 1.1875-0.52857 1.1875-1.1875-0.52857-1.1875-1.1875-1.1875zm4.3125 0c-0.65893 0-1.2188 0.52857-1.2188 1.1875s0.55982 1.1875 1.2188 1.1875c0.65893 0 1.1875-0.52857 1.1875-1.1875s-0.52857-1.1875-1.1875-1.1875zm4.2812 0c-0.65893 0-1.1875 0.52857-1.1875 1.1875s0.52857 1.1875 1.1875 1.1875 1.1875-0.52857 1.1875-1.1875-0.52857-1.1875-1.1875-1.1875zm4.3125 0c-0.65893 0-1.2188 0.52857-1.2188 1.1875s0.55982 1.1875 1.2188 1.1875c0.65893 0 1.1875-0.52857 1.1875-1.1875s-0.52857-1.1875-1.1875-1.1875zm4.2812 0c-0.65893 0-1.1875 0.52857-1.1875 1.1875s0.52857 1.1875 1.1875 1.1875 1.1875-0.52857 1.1875-1.1875-0.52857-1.1875-1.1875-1.1875zm4.3125 0c-0.65893 0-1.2188 0.52857-1.2188 1.1875s0.55982 1.1875 1.2188 1.1875c0.65893 0 1.1875-0.52857 1.1875-1.1875s-0.52857-1.1875-1.1875-1.1875zm4.2812 0c-0.65893 0-1.1875 0.52857-1.1875 1.1875s0.52857 1.1875 1.1875 1.1875 1.1875-0.52857 1.1875-1.1875-0.52857-1.1875-1.1875-1.1875zm4.3125 0c-0.65893 0-1.2188 0.52857-1.2188 1.1875s0.55982 1.1875 1.2188 1.1875c0.65893 0 1.1875-0.52857 1.1875-1.1875s-0.52857-1.1875-1.1875-1.1875zm4.2812 0c-0.65893 0-1.1875 0.52857-1.1875 1.1875s0.52857 1.1875 1.1875 1.1875 1.1875-0.52857 1.1875-1.1875-0.52857-1.1875-1.1875-1.1875zm4.3125 2.9375c-0.65893 0-1.2188 0.52857-1.2188 1.1875s0.55982 1.2188 1.2188 1.2188c0.65893 0 1.1875-0.55982 1.1875-1.2188 0-0.65893-0.52857-1.1875-1.1875-1.1875zm4.2812 0c-0.65893 0-1.1875 0.52857-1.1875 1.1875s0.52857 1.2188 1.1875 1.2188 1.1875-0.55982 1.1875-1.2188c0-0.65893-0.52857-1.1875-1.1875-1.1875zm4.3125 0c-0.65893 0-1.1875 0.52857-1.1875 1.1875s0.52857 1.2188 1.1875 1.2188 1.1875-0.55982 1.1875-1.2188c0-0.65893-0.52857-1.1875-1.1875-1.1875zm4.2812 0c-0.65893 0-1.1875 0.52857-1.1875 1.1875s0.52857 1.2188 1.1875 1.2188 1.1875-0.55982 1.1875-1.2188c0-0.65893-0.52857-1.1875-1.1875-1.1875zm4.3125 0c-0.65893 0-1.1875 0.52857-1.1875 1.1875s0.52857 1.2188 1.1875 1.2188 1.1875-0.55982 1.1875-1.2188c0-0.65893-0.52857-1.1875-1.1875-1.1875zm4.2812 0c-0.65893 0-1.1875 0.52857-1.1875 1.1875s0.52857 1.2188 1.1875 1.2188 1.1875-0.55982 1.1875-1.2188c0-0.65893-0.52857-1.1875-1.1875-1.1875zm4.3125 0c-0.65893 0-1.1875 0.52857-1.1875 1.1875s0.52857 1.2188 1.1875 1.2188 1.1875-0.55982 1.1875-1.2188c0-0.65893-0.52857-1.1875-1.1875-1.1875zm4.2812 0c-0.65893 0-1.1875 0.52857-1.1875 1.1875s0.52857 1.2188 1.1875 1.2188 1.1875-0.55982 1.1875-1.2188c0-0.65893-0.52857-1.1875-1.1875-1.1875zm4.3125 0c-0.65893 0-1.1875 0.52857-1.1875 1.1875s0.52857 1.2188 1.1875 1.2188 1.1875-0.55982 1.1875-1.2188c0-0.65893-0.52857-1.1875-1.1875-1.1875zm-163.28 0.46875c-0.65893 0-1.2188 0.52857-1.2188 1.1875s0.55982 1.1875 1.2188 1.1875c0.65893 0 1.1875-0.52857 1.1875-1.1875s-0.52857-1.1875-1.1875-1.1875zm4.2812 0c-0.65893 0-1.1875 0.52857-1.1875 1.1875s0.52857 1.1875 1.1875 1.1875 1.1875-0.52857 1.1875-1.1875-0.52857-1.1875-1.1875-1.1875zm4.3125 0c-0.65893 0-1.2188 0.52857-1.2188 1.1875s0.55982 1.1875 1.2188 1.1875c0.65893 0 1.1875-0.52857 1.1875-1.1875s-0.52857-1.1875-1.1875-1.1875zm4.2812 0c-0.65893 0-1.1875 0.52857-1.1875 1.1875s0.52857 1.1875 1.1875 1.1875 1.1875-0.52857 1.1875-1.1875-0.52857-1.1875-1.1875-1.1875zm4.3125 0c-0.65893 0-1.2188 0.52857-1.2188 1.1875s0.55982 1.1875 1.2188 1.1875c0.65893 0 1.1875-0.52857 1.1875-1.1875s-0.52857-1.1875-1.1875-1.1875zm4.2812 0c-0.65893 0-1.1875 0.52857-1.1875 1.1875s0.52857 1.1875 1.1875 1.1875 1.1875-0.52857 1.1875-1.1875-0.52857-1.1875-1.1875-1.1875zm4.3125 0c-0.65893 0-1.2188 0.52857-1.2188 1.1875s0.55982 1.1875 1.2188 1.1875c0.65893 0 1.1875-0.52857 1.1875-1.1875s-0.52857-1.1875-1.1875-1.1875zm4.2812 0c-0.65893 0-1.1875 0.52857-1.1875 1.1875s0.52857 1.1875 1.1875 1.1875 1.1875-0.52857 1.1875-1.1875-0.52857-1.1875-1.1875-1.1875zm4.3125 0c-0.65893 0-1.2188 0.52857-1.2188 1.1875s0.55982 1.1875 1.2188 1.1875c0.65893 0 1.1875-0.52857 1.1875-1.1875s-0.52857-1.1875-1.1875-1.1875zm4.2812 0c-0.65893 0-1.1875 0.52857-1.1875 1.1875s0.52857 1.1875 1.1875 1.1875 1.1875-0.52857 1.1875-1.1875-0.52857-1.1875-1.1875-1.1875zm4.3125 0c-0.65893 0-1.2188 0.52857-1.2188 1.1875s0.55982 1.1875 1.2188 1.1875c0.65893 0 1.1875-0.52857 1.1875-1.1875s-0.52857-1.1875-1.1875-1.1875zm4.2812 0c-0.65893 0-1.1875 0.52857-1.1875 1.1875s0.52857 1.1875 1.1875 1.1875 1.1875-0.52857 1.1875-1.1875-0.52857-1.1875-1.1875-1.1875zm4.3125 0c-0.65893 0-1.2188 0.52857-1.2188 1.1875s0.55982 1.1875 1.2188 1.1875c0.65893 0 1.1875-0.52857 1.1875-1.1875s-0.52857-1.1875-1.1875-1.1875zm4.2812 0c-0.65893 0-1.1875 0.52857-1.1875 1.1875s0.52857 1.1875 1.1875 1.1875 1.1875-0.52857 1.1875-1.1875-0.52857-1.1875-1.1875-1.1875zm4.3125 0c-0.65893 0-1.2188 0.52857-1.2188 1.1875s0.55982 1.1875 1.2188 1.1875c0.65893 0 1.1875-0.52857 1.1875-1.1875s-0.52857-1.1875-1.1875-1.1875zm4.2812 0c-0.65893 0-1.1875 0.52857-1.1875 1.1875s0.52857 1.1875 1.1875 1.1875 1.1875-0.52857 1.1875-1.1875-0.52857-1.1875-1.1875-1.1875zm4.3125 0c-0.65893 0-1.2188 0.52857-1.2188 1.1875s0.55982 1.1875 1.2188 1.1875c0.65893 0 1.1875-0.52857 1.1875-1.1875s-0.52857-1.1875-1.1875-1.1875zm4.2812 0c-0.65893 0-1.1875 0.52857-1.1875 1.1875s0.52857 1.1875 1.1875 1.1875 1.1875-0.52857 1.1875-1.1875-0.52857-1.1875-1.1875-1.1875zm4.3125 0c-0.65893 0-1.2188 0.52857-1.2188 1.1875s0.55982 1.1875 1.2188 1.1875c0.65893 0 1.1875-0.52857 1.1875-1.1875s-0.52857-1.1875-1.1875-1.1875zm4.2812 0c-0.65893 0-1.1875 0.52857-1.1875 1.1875s0.52857 1.1875 1.1875 1.1875 1.1875-0.52857 1.1875-1.1875-0.52857-1.1875-1.1875-1.1875zm4.3125 0c-0.65893 0-1.2188 0.52857-1.2188 1.1875s0.55982 1.1875 1.2188 1.1875c0.65893 0 1.1875-0.52857 1.1875-1.1875s-0.52857-1.1875-1.1875-1.1875zm4.2812 0c-0.65893 0-1.1875 0.52857-1.1875 1.1875s0.52857 1.1875 1.1875 1.1875 1.1875-0.52857 1.1875-1.1875-0.52857-1.1875-1.1875-1.1875zm4.3125 0c-0.65893 0-1.2188 0.52857-1.2188 1.1875s0.55982 1.1875 1.2188 1.1875c0.65893 0 1.1875-0.52857 1.1875-1.1875s-0.52857-1.1875-1.1875-1.1875zm4.2812 0c-0.65893 0-1.1875 0.52857-1.1875 1.1875s0.52857 1.1875 1.1875 1.1875 1.1875-0.52857 1.1875-1.1875-0.52857-1.1875-1.1875-1.1875zm4.3125 0c-0.65893 0-1.2188 0.52857-1.2188 1.1875s0.55982 1.1875 1.2188 1.1875c0.65893 0 1.1875-0.52857 1.1875-1.1875s-0.52857-1.1875-1.1875-1.1875zm4.2812 0c-0.65893 0-1.1875 0.52857-1.1875 1.1875s0.52857 1.1875 1.1875 1.1875 1.1875-0.52857 1.1875-1.1875-0.52857-1.1875-1.1875-1.1875zm4.3125 0c-0.65893 0-1.2188 0.52857-1.2188 1.1875s0.55982 1.1875 1.2188 1.1875c0.65893 0 1.1875-0.52857 1.1875-1.1875s-0.52857-1.1875-1.1875-1.1875zm4.2812 0c-0.65893 0-1.1875 0.52857-1.1875 1.1875s0.52857 1.1875 1.1875 1.1875 1.1875-0.52857 1.1875-1.1875-0.52857-1.1875-1.1875-1.1875zm4.3125 0c-0.65893 0-1.2188 0.52857-1.2188 1.1875s0.55982 1.1875 1.2188 1.1875c0.65893 0 1.1875-0.52857 1.1875-1.1875s-0.52857-1.1875-1.1875-1.1875zm4.2812 0c-0.65893 0-1.1875 0.52857-1.1875 1.1875s0.52857 1.1875 1.1875 1.1875 1.1875-0.52857 1.1875-1.1875-0.52857-1.1875-1.1875-1.1875zm4.3125 3.1562c-0.65893 0-1.2188 0.52857-1.2188 1.1875s0.55982 1.1875 1.2188 1.1875c0.65893 0 1.1875-0.52857 1.1875-1.1875s-0.52857-1.1875-1.1875-1.1875zm4.2812 0c-0.65893 0-1.1875 0.52857-1.1875 1.1875s0.52857 1.1875 1.1875 1.1875 1.1875-0.52857 1.1875-1.1875-0.52857-1.1875-1.1875-1.1875zm4.3125 0c-0.65893 0-1.1875 0.52857-1.1875 1.1875s0.52857 1.1875 1.1875 1.1875 1.1875-0.52857 1.1875-1.1875-0.52857-1.1875-1.1875-1.1875zm4.2812 0c-0.65893 0-1.1875 0.52857-1.1875 1.1875s0.52857 1.1875 1.1875 1.1875 1.1875-0.52857 1.1875-1.1875-0.52857-1.1875-1.1875-1.1875zm4.3125 0c-0.65893 0-1.1875 0.52857-1.1875 1.1875s0.52857 1.1875 1.1875 1.1875 1.1875-0.52857 1.1875-1.1875-0.52857-1.1875-1.1875-1.1875zm4.2812 0c-0.65893 0-1.1875 0.52857-1.1875 1.1875s0.52857 1.1875 1.1875 1.1875 1.1875-0.52857 1.1875-1.1875-0.52857-1.1875-1.1875-1.1875zm4.3125 0c-0.65893 0-1.1875 0.52857-1.1875 1.1875s0.52857 1.1875 1.1875 1.1875 1.1875-0.52857 1.1875-1.1875-0.52857-1.1875-1.1875-1.1875zm4.2812 0c-0.65893 0-1.1875 0.52857-1.1875 1.1875s0.52857 1.1875 1.1875 1.1875 1.1875-0.52857 1.1875-1.1875-0.52857-1.1875-1.1875-1.1875zm-154.69 0.4375c-0.65893 0-1.1875 0.55982-1.1875 1.2188 0 0.65893 0.52857 1.1875 1.1875 1.1875s1.1875-0.52857 1.1875-1.1875-0.52857-1.2188-1.1875-1.2188zm4.3125 0c-0.65893 0-1.2188 0.55982-1.2188 1.2188 0 0.65893 0.55982 1.1875 1.2188 1.1875 0.65893 0 1.1875-0.52857 1.1875-1.1875s-0.52857-1.2188-1.1875-1.2188zm4.2812 0c-0.65893 0-1.1875 0.55982-1.1875 1.2188 0 0.65893 0.52857 1.1875 1.1875 1.1875s1.1875-0.52857 1.1875-1.1875-0.52857-1.2188-1.1875-1.2188zm4.3125 0c-0.65893 0-1.2188 0.55982-1.2188 1.2188 0 0.65893 0.55982 1.1875 1.2188 1.1875 0.65893 0 1.1875-0.52857 1.1875-1.1875s-0.52857-1.2188-1.1875-1.2188zm4.2812 0c-0.65893 0-1.1875 0.55982-1.1875 1.2188 0 0.65893 0.52857 1.1875 1.1875 1.1875s1.1875-0.52857 1.1875-1.1875-0.52857-1.2188-1.1875-1.2188zm4.3125 0c-0.65893 0-1.2188 0.55982-1.2188 1.2188 0 0.65893 0.55982 1.1875 1.2188 1.1875 0.65893 0 1.1875-0.52857 1.1875-1.1875s-0.52857-1.2188-1.1875-1.2188zm4.2812 0c-0.65893 0-1.1875 0.55982-1.1875 1.2188 0 0.65893 0.52857 1.1875 1.1875 1.1875s1.1875-0.52857 1.1875-1.1875-0.52857-1.2188-1.1875-1.2188zm4.3125 0c-0.65893 0-1.2188 0.55982-1.2188 1.2188 0 0.65893 0.55982 1.1875 1.2188 1.1875 0.65893 0 1.1875-0.52857 1.1875-1.1875s-0.52857-1.2188-1.1875-1.2188zm4.2812 0c-0.65893 0-1.1875 0.55982-1.1875 1.2188 0 0.65893 0.52857 1.1875 1.1875 1.1875s1.1875-0.52857 1.1875-1.1875-0.52857-1.2188-1.1875-1.2188zm4.3125 0c-0.65893 0-1.2188 0.55982-1.2188 1.2188 0 0.65893 0.55982 1.1875 1.2188 1.1875 0.65893 0 1.1875-0.52857 1.1875-1.1875s-0.52857-1.2188-1.1875-1.2188zm4.2812 0c-0.65893 0-1.1875 0.55982-1.1875 1.2188 0 0.65893 0.52857 1.1875 1.1875 1.1875s1.1875-0.52857 1.1875-1.1875-0.52857-1.2188-1.1875-1.2188zm4.3125 0c-0.65893 0-1.2188 0.55982-1.2188 1.2188 0 0.65893 0.55982 1.1875 1.2188 1.1875 0.65893 0 1.1875-0.52857 1.1875-1.1875s-0.52857-1.2188-1.1875-1.2188zm4.2812 0c-0.65893 0-1.1875 0.55982-1.1875 1.2188 0 0.65893 0.52857 1.1875 1.1875 1.1875s1.1875-0.52857 1.1875-1.1875-0.52857-1.2188-1.1875-1.2188zm4.3125 0c-0.65893 0-1.2188 0.55982-1.2188 1.2188 0 0.65893 0.55982 1.1875 1.2188 1.1875 0.65893 0 1.1875-0.52857 1.1875-1.1875s-0.52857-1.2188-1.1875-1.2188zm4.2812 0c-0.65893 0-1.1875 0.55982-1.1875 1.2188 0 0.65893 0.52857 1.1875 1.1875 1.1875s1.1875-0.52857 1.1875-1.1875-0.52857-1.2188-1.1875-1.2188zm4.3125 0c-0.65893 0-1.2188 0.55982-1.2188 1.2188 0 0.65893 0.55982 1.1875 1.2188 1.1875 0.65893 0 1.1875-0.52857 1.1875-1.1875s-0.52857-1.2188-1.1875-1.2188zm4.2812 0c-0.65893 0-1.1875 0.55982-1.1875 1.2188 0 0.65893 0.52857 1.1875 1.1875 1.1875s1.1875-0.52857 1.1875-1.1875-0.52857-1.2188-1.1875-1.2188zm4.3125 0c-0.65893 0-1.2188 0.55982-1.2188 1.2188 0 0.65893 0.55982 1.1875 1.2188 1.1875 0.65893 0 1.1875-0.52857 1.1875-1.1875s-0.52857-1.2188-1.1875-1.2188zm4.2812 0c-0.65893 0-1.1875 0.55982-1.1875 1.2188 0 0.65893 0.52857 1.1875 1.1875 1.1875s1.1875-0.52857 1.1875-1.1875-0.52857-1.2188-1.1875-1.2188zm4.3125 0c-0.65893 0-1.2188 0.55982-1.2188 1.2188 0 0.65893 0.55982 1.1875 1.2188 1.1875 0.65893 0 1.1875-0.52857 1.1875-1.1875s-0.52857-1.2188-1.1875-1.2188zm4.2812 0c-0.65893 0-1.1875 0.55982-1.1875 1.2188 0 0.65893 0.52857 1.1875 1.1875 1.1875s1.1875-0.52857 1.1875-1.1875-0.52857-1.2188-1.1875-1.2188zm4.3125 0c-0.65893 0-1.2188 0.55982-1.2188 1.2188 0 0.65893 0.55982 1.1875 1.2188 1.1875 0.65893 0 1.1875-0.52857 1.1875-1.1875s-0.52857-1.2188-1.1875-1.2188zm4.2812 0c-0.65893 0-1.1875 0.55982-1.1875 1.2188 0 0.65893 0.52857 1.1875 1.1875 1.1875s1.1875-0.52857 1.1875-1.1875-0.52857-1.2188-1.1875-1.2188zm4.3125 0c-0.65893 0-1.2188 0.55982-1.2188 1.2188 0 0.65893 0.55982 1.1875 1.2188 1.1875 0.65893 0 1.1875-0.52857 1.1875-1.1875s-0.52857-1.2188-1.1875-1.2188zm4.2812 0c-0.65893 0-1.1875 0.55982-1.1875 1.2188 0 0.65893 0.52857 1.1875 1.1875 1.1875s1.1875-0.52857 1.1875-1.1875-0.52857-1.2188-1.1875-1.2188zm4.3125 0c-0.65893 0-1.2188 0.55982-1.2188 1.2188 0 0.65893 0.55982 1.1875 1.2188 1.1875 0.65893 0 1.1875-0.52857 1.1875-1.1875s-0.52857-1.2188-1.1875-1.2188zm4.2812 0c-0.65893 0-1.1875 0.55982-1.1875 1.2188 0 0.65893 0.52857 1.1875 1.1875 1.1875s1.1875-0.52857 1.1875-1.1875-0.52857-1.2188-1.1875-1.2188zm4.3125 0c-0.65893 0-1.2188 0.55982-1.2188 1.2188 0 0.65893 0.55982 1.1875 1.2188 1.1875 0.65893 0 1.1875-0.52857 1.1875-1.1875s-0.52857-1.2188-1.1875-1.2188zm4.2812 0c-0.65893 0-1.1875 0.55982-1.1875 1.2188 0 0.65893 0.52857 1.1875 1.1875 1.1875s1.1875-0.52857 1.1875-1.1875-0.52857-1.2188-1.1875-1.2188z" fill="#666"/>
      <path id="path5412" opacity=".73" filter="url(#filter5434)" d="m435.52 835.05c-0.65893 0-1.2188-0.55982-1.2188-1.2188 0-0.65893 0.55982-1.1875 1.2188-1.1875 0.65893 0 1.1875 0.52857 1.1875 1.1875s-0.52857 1.2188-1.1875 1.2188zm4.2812 0c-0.65893 0-1.1875-0.55982-1.1875-1.2188 0-0.65893 0.52857-1.1875 1.1875-1.1875s1.1875 0.52857 1.1875 1.1875-0.52857 1.2188-1.1875 1.2188zm4.3125 0c-0.65893 0-1.1875-0.55982-1.1875-1.2188 0-0.65893 0.52857-1.1875 1.1875-1.1875s1.1875 0.52857 1.1875 1.1875-0.52857 1.2188-1.1875 1.2188zm4.2812 0c-0.65893 0-1.1875-0.55982-1.1875-1.2188 0-0.65893 0.52857-1.1875 1.1875-1.1875s1.1875 0.52857 1.1875 1.1875-0.52857 1.2188-1.1875 1.2188zm4.3125 0c-0.65893 0-1.1875-0.55982-1.1875-1.2188 0-0.65893 0.52857-1.1875 1.1875-1.1875s1.1875 0.52857 1.1875 1.1875-0.52857 1.2188-1.1875 1.2188zm4.2812 0c-0.65893 0-1.1875-0.55982-1.1875-1.2188 0-0.65893 0.52857-1.1875 1.1875-1.1875s1.1875 0.52857 1.1875 1.1875-0.52857 1.2188-1.1875 1.2188zm4.3125 0c-0.65893 0-1.1875-0.55982-1.1875-1.2188 0-0.65893 0.52857-1.1875 1.1875-1.1875s1.1875 0.52857 1.1875 1.1875-0.52857 1.2188-1.1875 1.2188zm4.2812 0c-0.65893 0-1.1875-0.55982-1.1875-1.2188 0-0.65893 0.52857-1.1875 1.1875-1.1875s1.1875 0.52857 1.1875 1.1875-0.52857 1.2188-1.1875 1.2188zm4.3125 0c-0.65893 0-1.1875-0.55982-1.1875-1.2188 0-0.65893 0.52857-1.1875 1.1875-1.1875s1.1875 0.52857 1.1875 1.1875-0.52857 1.2188-1.1875 1.2188zm-163.28-0.46875c-0.65893 0-1.2188-0.52857-1.2188-1.1875s0.55982-1.1875 1.2188-1.1875c0.65893 0 1.1875 0.52857 1.1875 1.1875s-0.52857 1.1875-1.1875 1.1875zm4.2812 0c-0.65893 0-1.1875-0.52857-1.1875-1.1875s0.52857-1.1875 1.1875-1.1875 1.1875 0.52857 1.1875 1.1875-0.52857 1.1875-1.1875 1.1875zm4.3125 0c-0.65893 0-1.2188-0.52857-1.2188-1.1875s0.55982-1.1875 1.2188-1.1875c0.65893 0 1.1875 0.52857 1.1875 1.1875s-0.52857 1.1875-1.1875 1.1875zm4.2812 0c-0.65893 0-1.1875-0.52857-1.1875-1.1875s0.52857-1.1875 1.1875-1.1875 1.1875 0.52857 1.1875 1.1875-0.52857 1.1875-1.1875 1.1875zm4.3125 0c-0.65893 0-1.2188-0.52857-1.2188-1.1875s0.55982-1.1875 1.2188-1.1875c0.65893 0 1.1875 0.52857 1.1875 1.1875s-0.52857 1.1875-1.1875 1.1875zm4.2812 0c-0.65893 0-1.1875-0.52857-1.1875-1.1875s0.52857-1.1875 1.1875-1.1875 1.1875 0.52857 1.1875 1.1875-0.52857 1.1875-1.1875 1.1875zm4.3125 0c-0.65893 0-1.2188-0.52857-1.2188-1.1875s0.55982-1.1875 1.2188-1.1875c0.65893 0 1.1875 0.52857 1.1875 1.1875s-0.52857 1.1875-1.1875 1.1875zm4.2812 0c-0.65893 0-1.1875-0.52857-1.1875-1.1875s0.52857-1.1875 1.1875-1.1875 1.1875 0.52857 1.1875 1.1875-0.52857 1.1875-1.1875 1.1875zm4.3125 0c-0.65893 0-1.2188-0.52857-1.2188-1.1875s0.55982-1.1875 1.2188-1.1875c0.65893 0 1.1875 0.52857 1.1875 1.1875s-0.52857 1.1875-1.1875 1.1875zm4.2812 0c-0.65893 0-1.1875-0.52857-1.1875-1.1875s0.52857-1.1875 1.1875-1.1875 1.1875 0.52857 1.1875 1.1875-0.52857 1.1875-1.1875 1.1875zm4.3125 0c-0.65893 0-1.2188-0.52857-1.2188-1.1875s0.55982-1.1875 1.2188-1.1875c0.65893 0 1.1875 0.52857 1.1875 1.1875s-0.52857 1.1875-1.1875 1.1875zm4.2812 0c-0.65893 0-1.1875-0.52857-1.1875-1.1875s0.52857-1.1875 1.1875-1.1875 1.1875 0.52857 1.1875 1.1875-0.52857 1.1875-1.1875 1.1875zm4.3125 0c-0.65893 0-1.2188-0.52857-1.2188-1.1875s0.55982-1.1875 1.2188-1.1875c0.65893 0 1.1875 0.52857 1.1875 1.1875s-0.52857 1.1875-1.1875 1.1875zm4.2812 0c-0.65893 0-1.1875-0.52857-1.1875-1.1875s0.52857-1.1875 1.1875-1.1875 1.1875 0.52857 1.1875 1.1875-0.52857 1.1875-1.1875 1.1875zm4.3125 0c-0.65893 0-1.2188-0.52857-1.2188-1.1875s0.55982-1.1875 1.2188-1.1875c0.65893 0 1.1875 0.52857 1.1875 1.1875s-0.52857 1.1875-1.1875 1.1875zm4.2812 0c-0.65893 0-1.1875-0.52857-1.1875-1.1875s0.52857-1.1875 1.1875-1.1875 1.1875 0.52857 1.1875 1.1875-0.52857 1.1875-1.1875 1.1875zm4.3125 0c-0.65893 0-1.2188-0.52857-1.2188-1.1875s0.55982-1.1875 1.2188-1.1875c0.65893 0 1.1875 0.52857 1.1875 1.1875s-0.52857 1.1875-1.1875 1.1875zm4.2812 0c-0.65893 0-1.1875-0.52857-1.1875-1.1875s0.52857-1.1875 1.1875-1.1875 1.1875 0.52857 1.1875 1.1875-0.52857 1.1875-1.1875 1.1875zm4.3125 0c-0.65893 0-1.2188-0.52857-1.2188-1.1875s0.55982-1.1875 1.2188-1.1875c0.65893 0 1.1875 0.52857 1.1875 1.1875s-0.52857 1.1875-1.1875 1.1875zm4.2812 0c-0.65893 0-1.1875-0.52857-1.1875-1.1875s0.52857-1.1875 1.1875-1.1875 1.1875 0.52857 1.1875 1.1875-0.52857 1.1875-1.1875 1.1875zm4.3125 0c-0.65893 0-1.2188-0.52857-1.2188-1.1875s0.55982-1.1875 1.2188-1.1875c0.65893 0 1.1875 0.52857 1.1875 1.1875s-0.52857 1.1875-1.1875 1.1875zm4.2812 0c-0.65893 0-1.1875-0.52857-1.1875-1.1875s0.52857-1.1875 1.1875-1.1875 1.1875 0.52857 1.1875 1.1875-0.52857 1.1875-1.1875 1.1875zm4.3125 0c-0.65893 0-1.2188-0.52857-1.2188-1.1875s0.55982-1.1875 1.2188-1.1875c0.65893 0 1.1875 0.52857 1.1875 1.1875s-0.52857 1.1875-1.1875 1.1875zm4.2812 0c-0.65893 0-1.1875-0.52857-1.1875-1.1875s0.52857-1.1875 1.1875-1.1875 1.1875 0.52857 1.1875 1.1875-0.52857 1.1875-1.1875 1.1875zm4.3125 0c-0.65893 0-1.2188-0.52857-1.2188-1.1875s0.55982-1.1875 1.2188-1.1875c0.65893 0 1.1875 0.52857 1.1875 1.1875s-0.52857 1.1875-1.1875 1.1875zm4.2812 0c-0.65893 0-1.1875-0.52857-1.1875-1.1875s0.52857-1.1875 1.1875-1.1875 1.1875 0.52857 1.1875 1.1875-0.52857 1.1875-1.1875 1.1875zm4.3125 0c-0.65893 0-1.2188-0.52857-1.2188-1.1875s0.55982-1.1875 1.2188-1.1875c0.65893 0 1.1875 0.52857 1.1875 1.1875s-0.52857 1.1875-1.1875 1.1875zm4.2812 0c-0.65893 0-1.1875-0.52857-1.1875-1.1875s0.52857-1.1875 1.1875-1.1875 1.1875 0.52857 1.1875 1.1875-0.52857 1.1875-1.1875 1.1875zm4.3125 0c-0.65893 0-1.2188-0.52857-1.2188-1.1875s0.55982-1.1875 1.2188-1.1875c0.65893 0 1.1875 0.52857 1.1875 1.1875s-0.52857 1.1875-1.1875 1.1875zm4.2812 0c-0.65893 0-1.1875-0.52857-1.1875-1.1875s0.52857-1.1875 1.1875-1.1875 1.1875 0.52857 1.1875 1.1875-0.52857 1.1875-1.1875 1.1875zm4.3125-2.7188c-0.65893 0-1.2188-0.52857-1.2188-1.1875s0.55982-1.1875 1.2188-1.1875c0.65893 0 1.1875 0.52857 1.1875 1.1875s-0.52857 1.1875-1.1875 1.1875zm4.2812 0c-0.65893 0-1.1875-0.52857-1.1875-1.1875s0.52857-1.1875 1.1875-1.1875 1.1875 0.52857 1.1875 1.1875-0.52857 1.1875-1.1875 1.1875zm4.3125 0c-0.65893 0-1.1875-0.52857-1.1875-1.1875s0.52857-1.1875 1.1875-1.1875 1.1875 0.52857 1.1875 1.1875-0.52857 1.1875-1.1875 1.1875zm4.2812 0c-0.65893 0-1.1875-0.52857-1.1875-1.1875s0.52857-1.1875 1.1875-1.1875 1.1875 0.52857 1.1875 1.1875-0.52857 1.1875-1.1875 1.1875zm4.3125 0c-0.65893 0-1.1875-0.52857-1.1875-1.1875s0.52857-1.1875 1.1875-1.1875 1.1875 0.52857 1.1875 1.1875-0.52857 1.1875-1.1875 1.1875zm4.2812 0c-0.65893 0-1.1875-0.52857-1.1875-1.1875s0.52857-1.1875 1.1875-1.1875 1.1875 0.52857 1.1875 1.1875-0.52857 1.1875-1.1875 1.1875zm4.3125 0c-0.65893 0-1.1875-0.52857-1.1875-1.1875s0.52857-1.1875 1.1875-1.1875 1.1875 0.52857 1.1875 1.1875-0.52857 1.1875-1.1875 1.1875zm4.2812 0c-0.65893 0-1.1875-0.52857-1.1875-1.1875s0.52857-1.1875 1.1875-1.1875 1.1875 0.52857 1.1875 1.1875-0.52857 1.1875-1.1875 1.1875zm4.3125 0c-0.65893 0-1.1875-0.52857-1.1875-1.1875s0.52857-1.1875 1.1875-1.1875 1.1875 0.52857 1.1875 1.1875-0.52857 1.1875-1.1875 1.1875zm-163.28-0.4375c-0.65893 0-1.2188-0.52857-1.2188-1.1875s0.55982-1.1875 1.2188-1.1875c0.65893 0 1.1875 0.52857 1.1875 1.1875s-0.52857 1.1875-1.1875 1.1875zm4.2812 0c-0.65893 0-1.1875-0.52857-1.1875-1.1875s0.52857-1.1875 1.1875-1.1875 1.1875 0.52857 1.1875 1.1875-0.52857 1.1875-1.1875 1.1875zm4.3125 0c-0.65893 0-1.2188-0.52857-1.2188-1.1875s0.55982-1.1875 1.2188-1.1875c0.65893 0 1.1875 0.52857 1.1875 1.1875s-0.52857 1.1875-1.1875 1.1875zm4.2812 0c-0.65893 0-1.1875-0.52857-1.1875-1.1875s0.52857-1.1875 1.1875-1.1875 1.1875 0.52857 1.1875 1.1875-0.52857 1.1875-1.1875 1.1875zm4.3125 0c-0.65893 0-1.2188-0.52857-1.2188-1.1875s0.55982-1.1875 1.2188-1.1875c0.65893 0 1.1875 0.52857 1.1875 1.1875s-0.52857 1.1875-1.1875 1.1875zm4.2812 0c-0.65893 0-1.1875-0.52857-1.1875-1.1875s0.52857-1.1875 1.1875-1.1875 1.1875 0.52857 1.1875 1.1875-0.52857 1.1875-1.1875 1.1875zm4.3125 0c-0.65893 0-1.2188-0.52857-1.2188-1.1875s0.55982-1.1875 1.2188-1.1875c0.65893 0 1.1875 0.52857 1.1875 1.1875s-0.52857 1.1875-1.1875 1.1875zm4.2812 0c-0.65893 0-1.1875-0.52857-1.1875-1.1875s0.52857-1.1875 1.1875-1.1875 1.1875 0.52857 1.1875 1.1875-0.52857 1.1875-1.1875 1.1875zm4.3125 0c-0.65893 0-1.2188-0.52857-1.2188-1.1875s0.55982-1.1875 1.2188-1.1875c0.65893 0 1.1875 0.52857 1.1875 1.1875s-0.52857 1.1875-1.1875 1.1875zm4.2812 0c-0.65893 0-1.1875-0.52857-1.1875-1.1875s0.52857-1.1875 1.1875-1.1875 1.1875 0.52857 1.1875 1.1875-0.52857 1.1875-1.1875 1.1875zm4.3125 0c-0.65893 0-1.2188-0.52857-1.2188-1.1875s0.55982-1.1875 1.2188-1.1875c0.65893 0 1.1875 0.52857 1.1875 1.1875s-0.52857 1.1875-1.1875 1.1875zm4.2812 0c-0.65893 0-1.1875-0.52857-1.1875-1.1875s0.52857-1.1875 1.1875-1.1875 1.1875 0.52857 1.1875 1.1875-0.52857 1.1875-1.1875 1.1875zm4.3125 0c-0.65893 0-1.2188-0.52857-1.2188-1.1875s0.55982-1.1875 1.2188-1.1875c0.65893 0 1.1875 0.52857 1.1875 1.1875s-0.52857 1.1875-1.1875 1.1875zm4.2812 0c-0.65893 0-1.1875-0.52857-1.1875-1.1875s0.52857-1.1875 1.1875-1.1875 1.1875 0.52857 1.1875 1.1875-0.52857 1.1875-1.1875 1.1875zm4.3125 0c-0.65893 0-1.2188-0.52857-1.2188-1.1875s0.55982-1.1875 1.2188-1.1875c0.65893 0 1.1875 0.52857 1.1875 1.1875s-0.52857 1.1875-1.1875 1.1875zm4.2812 0c-0.65893 0-1.1875-0.52857-1.1875-1.1875s0.52857-1.1875 1.1875-1.1875 1.1875 0.52857 1.1875 1.1875-0.52857 1.1875-1.1875 1.1875zm4.3125 0c-0.65893 0-1.2188-0.52857-1.2188-1.1875s0.55982-1.1875 1.2188-1.1875c0.65893 0 1.1875 0.52857 1.1875 1.1875s-0.52857 1.1875-1.1875 1.1875zm4.2812 0c-0.65893 0-1.1875-0.52857-1.1875-1.1875s0.52857-1.1875 1.1875-1.1875 1.1875 0.52857 1.1875 1.1875-0.52857 1.1875-1.1875 1.1875zm4.3125 0c-0.65893 0-1.2188-0.52857-1.2188-1.1875s0.55982-1.1875 1.2188-1.1875c0.65893 0 1.1875 0.52857 1.1875 1.1875s-0.52857 1.1875-1.1875 1.1875zm4.2812 0c-0.65893 0-1.1875-0.52857-1.1875-1.1875s0.52857-1.1875 1.1875-1.1875 1.1875 0.52857 1.1875 1.1875-0.52857 1.1875-1.1875 1.1875zm4.3125 0c-0.65893 0-1.2188-0.52857-1.2188-1.1875s0.55982-1.1875 1.2188-1.1875c0.65893 0 1.1875 0.52857 1.1875 1.1875s-0.52857 1.1875-1.1875 1.1875zm4.2812 0c-0.65893 0-1.1875-0.52857-1.1875-1.1875s0.52857-1.1875 1.1875-1.1875 1.1875 0.52857 1.1875 1.1875-0.52857 1.1875-1.1875 1.1875zm4.3125 0c-0.65893 0-1.2188-0.52857-1.2188-1.1875s0.55982-1.1875 1.2188-1.1875c0.65893 0 1.1875 0.52857 1.1875 1.1875s-0.52857 1.1875-1.1875 1.1875zm4.2812 0c-0.65893 0-1.1875-0.52857-1.1875-1.1875s0.52857-1.1875 1.1875-1.1875 1.1875 0.52857 1.1875 1.1875-0.52857 1.1875-1.1875 1.1875zm4.3125 0c-0.65893 0-1.2188-0.52857-1.2188-1.1875s0.55982-1.1875 1.2188-1.1875c0.65893 0 1.1875 0.52857 1.1875 1.1875s-0.52857 1.1875-1.1875 1.1875zm4.2812 0c-0.65893 0-1.1875-0.52857-1.1875-1.1875s0.52857-1.1875 1.1875-1.1875 1.1875 0.52857 1.1875 1.1875-0.52857 1.1875-1.1875 1.1875zm4.3125 0c-0.65893 0-1.2188-0.52857-1.2188-1.1875s0.55982-1.1875 1.2188-1.1875c0.65893 0 1.1875 0.52857 1.1875 1.1875s-0.52857 1.1875-1.1875 1.1875zm4.2812 0c-0.65893 0-1.1875-0.52857-1.1875-1.1875s0.52857-1.1875 1.1875-1.1875 1.1875 0.52857 1.1875 1.1875-0.52857 1.1875-1.1875 1.1875zm4.3125 0c-0.65893 0-1.2188-0.52857-1.2188-1.1875s0.55982-1.1875 1.2188-1.1875c0.65893 0 1.1875 0.52857 1.1875 1.1875s-0.52857 1.1875-1.1875 1.1875zm4.2812 0c-0.65893 0-1.1875-0.52857-1.1875-1.1875s0.52857-1.1875 1.1875-1.1875 1.1875 0.52857 1.1875 1.1875-0.52857 1.1875-1.1875 1.1875zm4.3125-2.9375c-0.65893 0-1.2188-0.52857-1.2188-1.1875s0.55982-1.2188 1.2188-1.2188c0.65893 0 1.1875 0.55982 1.1875 1.2188 0 0.65893-0.52857 1.1875-1.1875 1.1875zm4.2812 0c-0.65893 0-1.1875-0.52857-1.1875-1.1875s0.52857-1.2188 1.1875-1.2188 1.1875 0.55982 1.1875 1.2188c0 0.65893-0.52857 1.1875-1.1875 1.1875zm4.3125 0c-0.65893 0-1.1875-0.52857-1.1875-1.1875s0.52857-1.2188 1.1875-1.2188 1.1875 0.55982 1.1875 1.2188c0 0.65893-0.52857 1.1875-1.1875 1.1875zm4.2812 0c-0.65893 0-1.1875-0.52857-1.1875-1.1875s0.52857-1.2188 1.1875-1.2188 1.1875 0.55982 1.1875 1.2188c0 0.65893-0.52857 1.1875-1.1875 1.1875zm4.3125 0c-0.65893 0-1.1875-0.52857-1.1875-1.1875s0.52857-1.2188 1.1875-1.2188 1.1875 0.55982 1.1875 1.2188c0 0.65893-0.52857 1.1875-1.1875 1.1875zm4.2812 0c-0.65893 0-1.1875-0.52857-1.1875-1.1875s0.52857-1.2188 1.1875-1.2188 1.1875 0.55982 1.1875 1.2188c0 0.65893-0.52857 1.1875-1.1875 1.1875zm4.3125 0c-0.65893 0-1.1875-0.52857-1.1875-1.1875s0.52857-1.2188 1.1875-1.2188 1.1875 0.55982 1.1875 1.2188c0 0.65893-0.52857 1.1875-1.1875 1.1875zm4.2812 0c-0.65893 0-1.1875-0.52857-1.1875-1.1875s0.52857-1.2188 1.1875-1.2188 1.1875 0.55982 1.1875 1.2188c0 0.65893-0.52857 1.1875-1.1875 1.1875zm4.3125 0c-0.65893 0-1.1875-0.52857-1.1875-1.1875s0.52857-1.2188 1.1875-1.2188 1.1875 0.55982 1.1875 1.2188c0 0.65893-0.52857 1.1875-1.1875 1.1875zm-163.28-0.46875c-0.65893 0-1.2188-0.52857-1.2188-1.1875s0.55982-1.1875 1.2188-1.1875c0.65893 0 1.1875 0.52857 1.1875 1.1875s-0.52857 1.1875-1.1875 1.1875zm4.2812 0c-0.65893 0-1.1875-0.52857-1.1875-1.1875s0.52857-1.1875 1.1875-1.1875 1.1875 0.52857 1.1875 1.1875-0.52857 1.1875-1.1875 1.1875zm4.3125 0c-0.65893 0-1.2188-0.52857-1.2188-1.1875s0.55982-1.1875 1.2188-1.1875c0.65893 0 1.1875 0.52857 1.1875 1.1875s-0.52857 1.1875-1.1875 1.1875zm4.2812 0c-0.65893 0-1.1875-0.52857-1.1875-1.1875s0.52857-1.1875 1.1875-1.1875 1.1875 0.52857 1.1875 1.1875-0.52857 1.1875-1.1875 1.1875zm4.3125 0c-0.65893 0-1.2188-0.52857-1.2188-1.1875s0.55982-1.1875 1.2188-1.1875c0.65893 0 1.1875 0.52857 1.1875 1.1875s-0.52857 1.1875-1.1875 1.1875zm4.2812 0c-0.65893 0-1.1875-0.52857-1.1875-1.1875s0.52857-1.1875 1.1875-1.1875 1.1875 0.52857 1.1875 1.1875-0.52857 1.1875-1.1875 1.1875zm4.3125 0c-0.65893 0-1.2188-0.52857-1.2188-1.1875s0.55982-1.1875 1.2188-1.1875c0.65893 0 1.1875 0.52857 1.1875 1.1875s-0.52857 1.1875-1.1875 1.1875zm4.2812 0c-0.65893 0-1.1875-0.52857-1.1875-1.1875s0.52857-1.1875 1.1875-1.1875 1.1875 0.52857 1.1875 1.1875-0.52857 1.1875-1.1875 1.1875zm4.3125 0c-0.65893 0-1.2188-0.52857-1.2188-1.1875s0.55982-1.1875 1.2188-1.1875c0.65893 0 1.1875 0.52857 1.1875 1.1875s-0.52857 1.1875-1.1875 1.1875zm4.2812 0c-0.65893 0-1.1875-0.52857-1.1875-1.1875s0.52857-1.1875 1.1875-1.1875 1.1875 0.52857 1.1875 1.1875-0.52857 1.1875-1.1875 1.1875zm4.3125 0c-0.65893 0-1.2188-0.52857-1.2188-1.1875s0.55982-1.1875 1.2188-1.1875c0.65893 0 1.1875 0.52857 1.1875 1.1875s-0.52857 1.1875-1.1875 1.1875zm4.2812 0c-0.65893 0-1.1875-0.52857-1.1875-1.1875s0.52857-1.1875 1.1875-1.1875 1.1875 0.52857 1.1875 1.1875-0.52857 1.1875-1.1875 1.1875zm4.3125 0c-0.65893 0-1.2188-0.52857-1.2188-1.1875s0.55982-1.1875 1.2188-1.1875c0.65893 0 1.1875 0.52857 1.1875 1.1875s-0.52857 1.1875-1.1875 1.1875zm4.2812 0c-0.65893 0-1.1875-0.52857-1.1875-1.1875s0.52857-1.1875 1.1875-1.1875 1.1875 0.52857 1.1875 1.1875-0.52857 1.1875-1.1875 1.1875zm4.3125 0c-0.65893 0-1.2188-0.52857-1.2188-1.1875s0.55982-1.1875 1.2188-1.1875c0.65893 0 1.1875 0.52857 1.1875 1.1875s-0.52857 1.1875-1.1875 1.1875zm4.2812 0c-0.65893 0-1.1875-0.52857-1.1875-1.1875s0.52857-1.1875 1.1875-1.1875 1.1875 0.52857 1.1875 1.1875-0.52857 1.1875-1.1875 1.1875zm4.3125 0c-0.65893 0-1.2188-0.52857-1.2188-1.1875s0.55982-1.1875 1.2188-1.1875c0.65893 0 1.1875 0.52857 1.1875 1.1875s-0.52857 1.1875-1.1875 1.1875zm4.2812 0c-0.65893 0-1.1875-0.52857-1.1875-1.1875s0.52857-1.1875 1.1875-1.1875 1.1875 0.52857 1.1875 1.1875-0.52857 1.1875-1.1875 1.1875zm4.3125 0c-0.65893 0-1.2188-0.52857-1.2188-1.1875s0.55982-1.1875 1.2188-1.1875c0.65893 0 1.1875 0.52857 1.1875 1.1875s-0.52857 1.1875-1.1875 1.1875zm4.2812 0c-0.65893 0-1.1875-0.52857-1.1875-1.1875s0.52857-1.1875 1.1875-1.1875 1.1875 0.52857 1.1875 1.1875-0.52857 1.1875-1.1875 1.1875zm4.3125 0c-0.65893 0-1.2188-0.52857-1.2188-1.1875s0.55982-1.1875 1.2188-1.1875c0.65893 0 1.1875 0.52857 1.1875 1.1875s-0.52857 1.1875-1.1875 1.1875zm4.2812 0c-0.65893 0-1.1875-0.52857-1.1875-1.1875s0.52857-1.1875 1.1875-1.1875 1.1875 0.52857 1.1875 1.1875-0.52857 1.1875-1.1875 1.1875zm4.3125 0c-0.65893 0-1.2188-0.52857-1.2188-1.1875s0.55982-1.1875 1.2188-1.1875c0.65893 0 1.1875 0.52857 1.1875 1.1875s-0.52857 1.1875-1.1875 1.1875zm4.2812 0c-0.65893 0-1.1875-0.52857-1.1875-1.1875s0.52857-1.1875 1.1875-1.1875 1.1875 0.52857 1.1875 1.1875-0.52857 1.1875-1.1875 1.1875zm4.3125 0c-0.65893 0-1.2188-0.52857-1.2188-1.1875s0.55982-1.1875 1.2188-1.1875c0.65893 0 1.1875 0.52857 1.1875 1.1875s-0.52857 1.1875-1.1875 1.1875zm4.2812 0c-0.65893 0-1.1875-0.52857-1.1875-1.1875s0.52857-1.1875 1.1875-1.1875 1.1875 0.52857 1.1875 1.1875-0.52857 1.1875-1.1875 1.1875zm4.3125 0c-0.65893 0-1.2188-0.52857-1.2188-1.1875s0.55982-1.1875 1.2188-1.1875c0.65893 0 1.1875 0.52857 1.1875 1.1875s-0.52857 1.1875-1.1875 1.1875zm4.2812 0c-0.65893 0-1.1875-0.52857-1.1875-1.1875s0.52857-1.1875 1.1875-1.1875 1.1875 0.52857 1.1875 1.1875-0.52857 1.1875-1.1875 1.1875zm4.3125 0c-0.65893 0-1.2188-0.52857-1.2188-1.1875s0.55982-1.1875 1.2188-1.1875c0.65893 0 1.1875 0.52857 1.1875 1.1875s-0.52857 1.1875-1.1875 1.1875zm4.2812 0c-0.65893 0-1.1875-0.52857-1.1875-1.1875s0.52857-1.1875 1.1875-1.1875 1.1875 0.52857 1.1875 1.1875-0.52857 1.1875-1.1875 1.1875zm4.3125-3.1562c-0.65893 0-1.2188-0.52857-1.2188-1.1875s0.55982-1.1875 1.2188-1.1875c0.65893 0 1.1875 0.52857 1.1875 1.1875s-0.52857 1.1875-1.1875 1.1875zm4.2812 0c-0.65893 0-1.1875-0.52857-1.1875-1.1875s0.52857-1.1875 1.1875-1.1875 1.1875 0.52857 1.1875 1.1875-0.52857 1.1875-1.1875 1.1875zm4.3125 0c-0.65893 0-1.1875-0.52857-1.1875-1.1875s0.52857-1.1875 1.1875-1.1875 1.1875 0.52857 1.1875 1.1875-0.52857 1.1875-1.1875 1.1875zm4.2812 0c-0.65893 0-1.1875-0.52857-1.1875-1.1875s0.52857-1.1875 1.1875-1.1875 1.1875 0.52857 1.1875 1.1875-0.52857 1.1875-1.1875 1.1875zm4.3125 0c-0.65893 0-1.1875-0.52857-1.1875-1.1875s0.52857-1.1875 1.1875-1.1875 1.1875 0.52857 1.1875 1.1875-0.52857 1.1875-1.1875 1.1875zm4.2812 0c-0.65893 0-1.1875-0.52857-1.1875-1.1875s0.52857-1.1875 1.1875-1.1875 1.1875 0.52857 1.1875 1.1875-0.52857 1.1875-1.1875 1.1875zm4.3125 0c-0.65893 0-1.1875-0.52857-1.1875-1.1875s0.52857-1.1875 1.1875-1.1875 1.1875 0.52857 1.1875 1.1875-0.52857 1.1875-1.1875 1.1875zm4.2812 0c-0.65893 0-1.1875-0.52857-1.1875-1.1875s0.52857-1.1875 1.1875-1.1875 1.1875 0.52857 1.1875 1.1875-0.52857 1.1875-1.1875 1.1875zm-154.69-0.4375c-0.65893 0-1.1875-0.55982-1.1875-1.2188 0-0.65893 0.52857-1.1875 1.1875-1.1875s1.1875 0.52857 1.1875 1.1875-0.52857 1.2188-1.1875 1.2188zm4.3125 0c-0.65893 0-1.2188-0.55982-1.2188-1.2188 0-0.65893 0.55982-1.1875 1.2188-1.1875 0.65893 0 1.1875 0.52857 1.1875 1.1875s-0.52857 1.2188-1.1875 1.2188zm4.2812 0c-0.65893 0-1.1875-0.55982-1.1875-1.2188 0-0.65893 0.52857-1.1875 1.1875-1.1875s1.1875 0.52857 1.1875 1.1875-0.52857 1.2188-1.1875 1.2188zm4.3125 0c-0.65893 0-1.2188-0.55982-1.2188-1.2188 0-0.65893 0.55982-1.1875 1.2188-1.1875 0.65893 0 1.1875 0.52857 1.1875 1.1875s-0.52857 1.2188-1.1875 1.2188zm4.2812 0c-0.65893 0-1.1875-0.55982-1.1875-1.2188 0-0.65893 0.52857-1.1875 1.1875-1.1875s1.1875 0.52857 1.1875 1.1875-0.52857 1.2188-1.1875 1.2188zm4.3125 0c-0.65893 0-1.2188-0.55982-1.2188-1.2188 0-0.65893 0.55982-1.1875 1.2188-1.1875 0.65893 0 1.1875 0.52857 1.1875 1.1875s-0.52857 1.2188-1.1875 1.2188zm4.2812 0c-0.65893 0-1.1875-0.55982-1.1875-1.2188 0-0.65893 0.52857-1.1875 1.1875-1.1875s1.1875 0.52857 1.1875 1.1875-0.52857 1.2188-1.1875 1.2188zm4.3125 0c-0.65893 0-1.2188-0.55982-1.2188-1.2188 0-0.65893 0.55982-1.1875 1.2188-1.1875 0.65893 0 1.1875 0.52857 1.1875 1.1875s-0.52857 1.2188-1.1875 1.2188zm4.2812 0c-0.65893 0-1.1875-0.55982-1.1875-1.2188 0-0.65893 0.52857-1.1875 1.1875-1.1875s1.1875 0.52857 1.1875 1.1875-0.52857 1.2188-1.1875 1.2188zm4.3125 0c-0.65893 0-1.2188-0.55982-1.2188-1.2188 0-0.65893 0.55982-1.1875 1.2188-1.1875 0.65893 0 1.1875 0.52857 1.1875 1.1875s-0.52857 1.2188-1.1875 1.2188zm4.2812 0c-0.65893 0-1.1875-0.55982-1.1875-1.2188 0-0.65893 0.52857-1.1875 1.1875-1.1875s1.1875 0.52857 1.1875 1.1875-0.52857 1.2188-1.1875 1.2188zm4.3125 0c-0.65893 0-1.2188-0.55982-1.2188-1.2188 0-0.65893 0.55982-1.1875 1.2188-1.1875 0.65893 0 1.1875 0.52857 1.1875 1.1875s-0.52857 1.2188-1.1875 1.2188zm4.2812 0c-0.65893 0-1.1875-0.55982-1.1875-1.2188 0-0.65893 0.52857-1.1875 1.1875-1.1875s1.1875 0.52857 1.1875 1.1875-0.52857 1.2188-1.1875 1.2188zm4.3125 0c-0.65893 0-1.2188-0.55982-1.2188-1.2188 0-0.65893 0.55982-1.1875 1.2188-1.1875 0.65893 0 1.1875 0.52857 1.1875 1.1875s-0.52857 1.2188-1.1875 1.2188zm4.2812 0c-0.65893 0-1.1875-0.55982-1.1875-1.2188 0-0.65893 0.52857-1.1875 1.1875-1.1875s1.1875 0.52857 1.1875 1.1875-0.52857 1.2188-1.1875 1.2188zm4.3125 0c-0.65893 0-1.2188-0.55982-1.2188-1.2188 0-0.65893 0.55982-1.1875 1.2188-1.1875 0.65893 0 1.1875 0.52857 1.1875 1.1875s-0.52857 1.2188-1.1875 1.2188zm4.2812 0c-0.65893 0-1.1875-0.55982-1.1875-1.2188 0-0.65893 0.52857-1.1875 1.1875-1.1875s1.1875 0.52857 1.1875 1.1875-0.52857 1.2188-1.1875 1.2188zm4.3125 0c-0.65893 0-1.2188-0.55982-1.2188-1.2188 0-0.65893 0.55982-1.1875 1.2188-1.1875 0.65893 0 1.1875 0.52857 1.1875 1.1875s-0.52857 1.2188-1.1875 1.2188zm4.2812 0c-0.65893 0-1.1875-0.55982-1.1875-1.2188 0-0.65893 0.52857-1.1875 1.1875-1.1875s1.1875 0.52857 1.1875 1.1875-0.52857 1.2188-1.1875 1.2188zm4.3125 0c-0.65893 0-1.2188-0.55982-1.2188-1.2188 0-0.65893 0.55982-1.1875 1.2188-1.1875 0.65893 0 1.1875 0.52857 1.1875 1.1875s-0.52857 1.2188-1.1875 1.2188zm4.2812 0c-0.65893 0-1.1875-0.55982-1.1875-1.2188 0-0.65893 0.52857-1.1875 1.1875-1.1875s1.1875 0.52857 1.1875 1.1875-0.52857 1.2188-1.1875 1.2188zm4.3125 0c-0.65893 0-1.2188-0.55982-1.2188-1.2188 0-0.65893 0.55982-1.1875 1.2188-1.1875 0.65893 0 1.1875 0.52857 1.1875 1.1875s-0.52857 1.2188-1.1875 1.2188zm4.2812 0c-0.65893 0-1.1875-0.55982-1.1875-1.2188 0-0.65893 0.52857-1.1875 1.1875-1.1875s1.1875 0.52857 1.1875 1.1875-0.52857 1.2188-1.1875 1.2188zm4.3125 0c-0.65893 0-1.2188-0.55982-1.2188-1.2188 0-0.65893 0.55982-1.1875 1.2188-1.1875 0.65893 0 1.1875 0.52857 1.1875 1.1875s-0.52857 1.2188-1.1875 1.2188zm4.2812 0c-0.65893 0-1.1875-0.55982-1.1875-1.2188 0-0.65893 0.52857-1.1875 1.1875-1.1875s1.1875 0.52857 1.1875 1.1875-0.52857 1.2188-1.1875 1.2188zm4.3125 0c-0.65893 0-1.2188-0.55982-1.2188-1.2188 0-0.65893 0.55982-1.1875 1.2188-1.1875 0.65893 0 1.1875 0.52857 1.1875 1.1875s-0.52857 1.2188-1.1875 1.2188zm4.2812 0c-0.65893 0-1.1875-0.55982-1.1875-1.2188 0-0.65893 0.52857-1.1875 1.1875-1.1875s1.1875 0.52857 1.1875 1.1875-0.52857 1.2188-1.1875 1.2188zm4.3125 0c-0.65893 0-1.2188-0.55982-1.2188-1.2188 0-0.65893 0.55982-1.1875 1.2188-1.1875 0.65893 0 1.1875 0.52857 1.1875 1.1875s-0.52857 1.2188-1.1875 1.2188zm4.2812 0c-0.65893 0-1.1875-0.55982-1.1875-1.2188 0-0.65893 0.52857-1.1875 1.1875-1.1875s1.1875 0.52857 1.1875 1.1875-0.52857 1.2188-1.1875 1.2188z" fill="#666"/>
      <path id="path3080" d="m601.73 267.25c0.20222 0.0216 0.41255 0.0399 0.6287 0.0399h2.5978c1.5864 0 2.8588-2.7999 2.8588-3.5627v-57.766c0-0.76285-1.2724-3.3807-2.8588-3.3807h-2.5978c-0.21615 0-0.42648 0.0183-0.6287 0.04z" fill="url(#radialGradient3082)"/>
      <path id="path3084" d="m601.73 330.09c0.20222 0.0216 0.41255 0.0399 0.6287 0.0399h2.5978c1.5864 0 2.8588-2.7999 2.8588-3.5627v-57.766c0-0.76285-1.2724-3.3807-2.8588-3.3807h-2.5978c-0.21615 0-0.42648 0.0183-0.6287 0.04z" fill="url(#radialGradient3086)"/>
    </g>
  </g>
  <metadata>
    <rdf:RDF>
      <cc:Work>
        <dc:format>image/svg+xml</dc:format>
        <dc:type rdf:resource="http://purl.org/dc/dcmitype/StillImage"/>
        <cc:license rdf:resource="http://creativecommons.org/licenses/publicdomain/"/>
        <dc:publisher>
          <cc:Agent rdf:about="http://openclipart.org/">
            <dc:title>Openclipart</dc:title>
          </cc:Agent>
        </dc:publisher>
        <dc:title>Smartphone</dc:title>
        <dc:date>2012-09-13T23:21:58</dc:date>
        <dc:description>android, cellphone, clip art, clipart, gadget, smartphone, telephone, touch, </dc:description>
        <dc:source>http://openclipart.org/detail/172335/smartphone-by-maw-172335</dc:source>
        <dc:creator>
          <cc:Agent>
            <dc:title>Maw</dc:title>
          </cc:Agent>
        </dc:creator>
        <dc:subject>
          <rdf:Bag>
            <rdf:li>android</rdf:li>
            <rdf:li>cellphone</rdf:li>
            <rdf:li>clip art</rdf:li>
            <rdf:li>clipart</rdf:li>
            <rdf:li>gadget</rdf:li>
            <rdf:li>smartphone</rdf:li>
            <rdf:li>telephone</rdf:li>
            <rdf:li>touch</rdf:li>
          </rdf:Bag>
        </dc:subject>
      </cc:Work>
      <cc:License rdf:about="http://creativecommons.org/licenses/publicdomain/">
        <cc:permits rdf:resource="http://creativecommons.org/ns#Reproduction"/>
        <cc:permits rdf:resource="http://creativecommons.org/ns#Distribution"/>
        <cc:permits rdf:resource="http://creativecommons.org/ns#DerivativeWorks"/>
      </cc:License>
    </rdf:RDF>
  </metadata>
</svg>
